<svg width="25" height="25" viewBox="0 0 25 25" fill="none" xmlns="http://www.w3.org/2000/svg">
<g clip-path="url(#clip0_63_4)">
<path d="M20.675 8.17499C19.6417 8.17499 18.6938 8.53749 17.95 9.14166C17.1802 8.51501 16.2176 8.17353 15.225 8.17499C14.1917 8.17499 13.2438 8.53749 12.5 9.14166C11.7302 8.51501 10.7676 8.17353 9.77501 8.17499C8.74168 8.17499 7.79376 8.53749 7.05001 9.14166C6.41542 8.62669 5.64791 8.30206 4.83641 8.20537C4.0249 8.10868 3.2026 8.24389 2.46478 8.59535C1.72696 8.9468 1.10382 9.5001 0.667543 10.1912C0.231268 10.8822 -0.000282288 11.6827 -0.000282288 12.5C-0.000282288 13.3172 0.231268 14.1178 0.667543 14.8088C1.10382 15.4999 1.72696 16.0532 2.46478 16.4046C3.2026 16.7561 4.0249 16.8913 4.83641 16.7946C5.64791 16.6979 6.41542 16.3733 7.05001 15.8583C7.79376 16.4625 8.74168 16.825 9.77501 16.825C10.8083 16.825 11.7563 16.4625 12.5 15.8583C13.2438 16.4625 14.1917 16.825 15.225 16.825C16.2583 16.825 17.2063 16.4625 17.95 15.8583C18.4876 16.2946 19.122 16.5954 19.8 16.7355C20.478 16.8756 21.1797 16.8509 21.8461 16.6635C22.5126 16.4761 23.1243 16.1314 23.6299 15.6585C24.1355 15.1856 24.5201 14.5982 24.7515 13.9457C24.9829 13.2932 25.0543 12.5947 24.9597 11.9089C24.8651 11.2231 24.6072 10.57 24.2078 10.0046C23.8084 9.43913 23.279 8.97783 22.6643 8.65946C22.0495 8.34109 21.3673 8.17495 20.675 8.17499ZM17.95 14.4437C17.5441 13.877 17.3262 13.1971 17.3271 12.5C17.3271 11.775 17.5583 11.1042 17.95 10.5562C18.3417 11.1042 18.5729 11.775 18.5729 12.5C18.5729 13.225 18.3417 13.8958 17.95 14.4437ZM12.5 14.4437C12.0941 13.877 11.8762 13.1971 11.8771 12.5C11.8771 11.775 12.1083 11.1042 12.5 10.5562C12.8917 11.1042 13.1229 11.775 13.1229 12.5C13.1229 13.225 12.8917 13.8958 12.5 14.4437ZM7.05001 14.4437C6.6441 13.877 6.42623 13.1971 6.42709 12.5C6.42709 11.775 6.65834 11.1042 7.05001 10.5562C7.44168 11.1042 7.67293 11.775 7.67293 12.5C7.67293 13.225 7.44168 13.8958 7.05001 14.4437ZM0.977094 12.5C0.97734 11.8753 1.15237 11.2631 1.48238 10.7327C1.81239 10.2023 2.28423 9.77478 2.84453 9.49853C3.40483 9.22228 4.03125 9.1083 4.65294 9.16949C5.27464 9.23069 5.86682 9.4646 6.36251 9.84478C5.77025 10.6031 5.44901 11.5378 5.45001 12.5C5.45001 13.501 5.79168 14.4229 6.36251 15.1552C5.86682 15.5354 5.27464 15.7693 4.65294 15.8305C4.03125 15.8917 3.40483 15.7777 2.84453 15.5015C2.28423 15.2252 1.81239 14.7977 1.48238 14.2673C1.15237 13.7369 0.97734 13.1247 0.977094 12.5ZM7.73751 15.1552C8.32977 14.3969 8.65102 13.4621 8.65001 12.5C8.65001 11.499 8.30834 10.5771 7.73751 9.84478C8.32152 9.39517 9.03798 9.1516 9.77501 9.15208C10.5417 9.15208 11.2479 9.41041 11.8125 9.84478C11.22 10.6029 10.8987 11.5378 10.9 12.5C10.9 13.501 11.2417 14.4229 11.8125 15.1552C11.2285 15.6048 10.512 15.8484 9.77501 15.8479C9.03788 15.8489 8.32126 15.6053 7.73751 15.1552ZM13.1875 15.1552C13.7801 14.3971 14.1013 13.4622 14.1 12.5C14.1 11.499 13.7583 10.5771 13.1875 9.84374C13.7521 9.41041 14.4583 9.15103 15.225 9.15103C15.9917 9.15103 16.6979 9.40937 17.2625 9.84374C16.67 10.6019 16.3487 11.5367 16.35 12.499C16.35 13.5 16.6917 14.4219 17.2625 15.1542C16.6785 15.6038 15.962 15.8473 15.225 15.8469C14.4879 15.8487 13.7712 15.6054 13.1875 15.1552ZM20.675 15.8479C19.9379 15.8489 19.2213 15.6053 18.6375 15.1552C19.2296 14.3968 19.5509 13.4621 19.55 12.5C19.55 11.499 19.2083 10.5771 18.6375 9.84478C19.0596 9.52064 19.5528 9.30177 20.0764 9.20634C20.5999 9.11091 21.1387 9.14167 21.648 9.29605C22.1572 9.45043 22.6224 9.724 23.0048 10.0941C23.3873 10.4641 23.676 10.92 23.847 11.424C24.0181 11.9279 24.0665 12.4654 23.9883 12.9918C23.9102 13.5182 23.7076 14.0183 23.3975 14.4508C23.0874 14.8833 22.6787 15.2357 22.2052 15.4786C21.7318 15.7216 21.2072 15.8482 20.675 15.8479Z" fill="white"/>
</g>
<defs>
<clipPath id="clip0_63_4">
<rect width="25" height="25" fill="white"/>
</clipPath>
</defs>
</svg>
