<svg width="25" height="25" viewBox="0 0 25 25" fill="none" xmlns="http://www.w3.org/2000/svg">
<g clip-path="url(#clip0_63_2)">
<path d="M12.5 0C5.59687 0 0 5.59687 0 12.5C0 19.4031 5.59687 25 12.5 25C19.4031 25 25 19.4031 25 12.5C25 5.59687 19.4031 0 12.5 0ZM12.5 0.8125C18.9542 0.8125 24.1865 6.04479 24.1865 12.5C24.1865 18.9542 18.9552 24.1865 12.5 24.1865C6.04479 24.1865 0.813542 18.9542 0.813542 12.5C0.813542 6.04583 6.04583 0.8125 12.5 0.8125ZM11.7937 1.46875C11.45 1.48333 11.1062 1.5125 10.7604 1.55L10.649 4.61667C10.8942 4.57516 11.1409 4.5425 11.3885 4.51875L11.4615 2.44792L11.4479 2.30521L11.4927 2.44062L12.1844 3.99167H12.8156L13.5073 2.44167L13.549 2.30521L13.5385 2.44792L13.6115 4.51875C13.8531 4.54167 14.1042 4.575 14.351 4.61667L14.2375 1.55C13.8941 1.5113 13.5494 1.4842 13.2042 1.46875L12.524 3.16146L12.5 3.28646L12.476 3.16146L11.7937 1.46875ZM18.7687 3.36875L17.1615 5.89792C17.3646 6.05417 17.6323 6.28437 17.8042 6.44167L19.3177 5.65625L19.4135 5.58437L19.3417 5.68229L18.5583 7.19583C18.7281 7.37812 18.9729 7.67292 19.1104 7.85208L21.6417 6.24375C21.4864 6.04293 21.3267 5.84566 21.1625 5.65208L19.5594 6.70833L19.45 6.80417L19.5312 6.68437L20.2396 5.27187L19.7396 4.77187L18.3271 5.48021L18.2073 5.56146L18.3021 5.45104L19.3625 3.84792C19.175 3.68958 18.9969 3.54479 18.7687 3.36875ZM5.72917 3.94271C5.35417 3.98125 5.06458 4.2375 4.27812 5.11458C4.00541 5.42364 3.74244 5.74116 3.48958 6.06667L5.65 8.11562C6.36562 7.32396 6.65625 7.03021 7.22083 6.43542C7.61979 6.01354 7.84583 5.52917 7.44583 5.06354C7.22917 4.81146 6.86458 4.75625 6.56042 4.88125L6.53125 4.89167L6.54167 4.86458C6.57923 4.72637 6.57526 4.58015 6.53024 4.44417C6.48523 4.3082 6.40116 4.1885 6.28854 4.1C6.21026 4.03828 6.12051 3.99269 6.0245 3.96587C5.92848 3.93905 5.8281 3.93049 5.72917 3.94271ZM5.73542 4.58333C5.87708 4.54479 6.02396 4.64583 6.05625 4.79167C6.08958 4.9375 5.99792 5.075 5.89583 5.18958C5.66667 5.45 4.82188 6.33333 4.82188 6.33333L4.40313 5.93437C4.8375 5.40312 5.3 4.91979 5.50937 4.72812C5.57219 4.66264 5.64967 4.61302 5.73542 4.58333ZM12.5 5.08646C10.665 5.08565 8.89496 5.76569 7.53255 6.99494C6.17014 8.22419 5.31227 9.91521 5.125 11.7406V11.7427C5.00729 12.9008 5.16377 14.0704 5.58178 15.1568C5.99979 16.2433 6.6676 17.2161 7.53121 17.9967C8.39483 18.7772 9.43001 19.3436 10.553 19.65C11.6761 19.9564 12.8555 19.9942 13.9958 19.7604C15.6674 19.4168 17.169 18.5067 18.2471 17.1838C19.3251 15.861 19.9134 14.2065 19.9125 12.5C19.9106 10.5348 19.129 8.6506 17.7392 7.26107C16.3495 5.87154 14.4652 5.0902 12.5 5.08854V5.08646ZM6.73229 5.33854C6.78125 5.33854 6.83229 5.35208 6.87812 5.38333C6.96979 5.44479 7.01146 5.55 6.98854 5.65417C6.96146 5.77812 6.85833 5.89479 6.775 5.98542L5.68646 7.15208L5.24896 6.73542C5.24896 6.73542 6.06875 5.86875 6.3375 5.59062C6.44375 5.48021 6.5125 5.41354 6.58542 5.37708C6.63059 5.35363 6.68143 5.34047 6.73229 5.33854ZM12.5 6.06042C13.3459 6.05946 14.1837 6.22537 14.9655 6.54865C15.7472 6.87193 16.4575 7.34623 17.0556 7.94439C17.6538 8.54255 18.1281 9.25282 18.4514 10.0345C18.7746 10.8163 18.9405 11.6541 18.9396 12.5H12.5V18.9396C11.6541 18.9405 10.8163 18.7746 10.0345 18.4514C9.25282 18.1281 8.54255 17.6538 7.94439 17.0556C7.34623 16.4575 6.87193 15.7472 6.54865 14.9655C6.22537 14.1837 6.05946 13.3459 6.06042 12.5H12.5V6.06042Z" fill="#34ADDD"/>
</g>
<defs>
<clipPath id="clip0_63_2">
<rect width="25" height="25" fill="white"/>
</clipPath>
</defs>
</svg>
