<svg width="25" height="25" viewBox="0 0 25 25" fill="none" xmlns="http://www.w3.org/2000/svg">
<g clip-path="url(#clip0_63_15)">
<path d="M12.5 5.58542L15.0781 2.43333C15.0781 2.43333 19.5 2.52708 23.9021 4.57292C22.775 6.27708 20.5365 7.1125 20.5365 7.1125C20.3844 5.61354 19.3344 5.24792 16.001 5.24792L12.5 25L8.97813 5.24375C5.66563 5.24375 4.61562 5.6125 4.4625 7.11042C4.4625 7.11042 2.22708 6.28229 1.09896 4.57917C5.5 2.53229 9.92187 2.4375 9.92187 2.4375L12.5 5.58542ZM12.5 5.58542L12.4958 5.5875H12.5V5.58542ZM12.5 1.52396C16.0573 1.49271 20.1312 2.07396 24.3 3.89896C24.8573 2.89062 25 2.44583 25 2.44583C20.4427 0.6375 16.175 0.015625 12.5 0C8.825 0.015625 4.55729 0.635417 0 2.44687C0 2.44687 0.203125 2.99375 0.7 3.90104C4.86875 2.07187 8.94271 1.49479 12.5 1.52083V1.52396Z" fill="#34ADDD"/>
</g>
<defs>
<clipPath id="clip0_63_15">
<rect width="25" height="25" fill="white"/>
</clipPath>
</defs>
</svg>
