<svg width="25" height="25" viewBox="0 0 25 25" fill="none" xmlns="http://www.w3.org/2000/svg">
<g clip-path="url(#clip0_63_6)">
<mask id="mask0_63_6" style="mask-type:luminance" maskUnits="userSpaceOnUse" x="0" y="0" width="25" height="25">
<path d="M12.5 22.9167C18.2531 22.9167 22.9167 18.2531 22.9167 12.5C22.9167 6.74689 18.2531 2.08334 12.5 2.08334C6.74688 2.08334 2.08334 6.74689 2.08334 12.5C2.08334 18.2531 6.74688 22.9167 12.5 22.9167Z" fill="white" stroke="white" stroke-width="4"/>
<path d="M3.64583 7.29166L8.33333 19.2708L11.4583 13.5417H13.5417L16.6667 19.2708L21.3542 7.29166" stroke="black" stroke-width="4" stroke-linecap="round" stroke-linejoin="round"/>
<path d="M8.33333 3.125L11.4583 9.89583H13.5417L16.6667 3.125" stroke="black" stroke-width="4" stroke-linecap="round" stroke-linejoin="round"/>
<path d="M22.9167 12.5C22.9184 11.0219 22.6047 9.56048 21.9967 8.21326C21.3886 6.86604 20.5002 5.66404 19.3906 4.68749C17.4895 3.00598 15.0381 2.07951 12.5 2.08332C9.96195 2.07951 7.51049 3.00598 5.60937 4.68749C4.49984 5.66404 3.61139 6.86604 3.00334 8.21326C2.3953 9.56048 2.08165 11.0219 2.08333 12.5" stroke="white" stroke-width="4" stroke-linecap="round"/>
</mask>
<g mask="url(#mask0_63_6)">
<path d="M0 0H25V25H0V0Z" fill="white"/>
</g>
</g>
<defs>
<clipPath id="clip0_63_6">
<rect width="25" height="25" fill="white"/>
</clipPath>
</defs>
</svg>
