<svg width="25" height="25" viewBox="0 0 25 25" fill="none" xmlns="http://www.w3.org/2000/svg">
<path d="M12.5 2.08334C11.1321 2.08334 9.77752 2.35277 8.51371 2.87626C7.2499 3.39974 6.10158 4.16703 5.1343 5.13431C3.1808 7.08781 2.08333 9.73733 2.08333 12.5C2.08333 15.2627 3.1808 17.9122 5.1343 19.8657C6.10158 20.833 7.2499 21.6003 8.51371 22.1238C9.77752 22.6472 11.1321 22.9167 12.5 22.9167C15.2627 22.9167 17.9122 21.8192 19.8657 19.8657C21.8192 17.9122 22.9167 15.2627 22.9167 12.5C22.9167 11.1321 22.6472 9.77753 22.1237 8.51372C21.6003 7.24991 20.833 6.10158 19.8657 5.13431C18.8984 4.16703 17.7501 3.39974 16.4863 2.87626C15.2225 2.35277 13.8679 2.08334 12.5 2.08334ZM16.875 16.875L11.4583 13.5417V7.29167H13.0208V12.7083L17.7083 15.5208L16.875 16.875Z" fill="#0F52BA"/>
</svg>
