<svg width="25" height="25" viewBox="0 0 25 25" fill="none" xmlns="http://www.w3.org/2000/svg">
<g clip-path="url(#clip0_127_5)">
<path fill-rule="evenodd" clip-rule="evenodd" d="M17.4739 3.15208C17.733 3.09195 18.0053 3.13319 18.2349 3.26734C18.4645 3.40149 18.6341 3.61839 18.709 3.87359C18.7839 4.12878 18.7583 4.40295 18.6375 4.63988C18.5167 4.87682 18.3099 5.05858 18.0594 5.14791L17.9427 5.18125L15.625 5.71666V10.4167H19.7917C20.3173 10.4165 20.8235 10.615 21.2089 10.9724C21.5943 11.3298 21.8304 11.8196 21.8698 12.3437L21.875 12.5V19.7917C21.8752 20.3173 21.6766 20.8235 21.3193 21.2089C20.9619 21.5943 20.472 21.8304 19.9479 21.8698L19.7917 21.875H6.24998C5.72438 21.8752 5.21814 21.6767 4.83275 21.3193C4.44735 20.9619 4.21128 20.472 4.17186 19.9479L4.16665 19.7917V8.33333C3.92102 8.33367 3.68317 8.2472 3.49511 8.08919C3.30704 7.93117 3.18087 7.71178 3.13888 7.46977C3.09688 7.22775 3.14176 6.97868 3.26558 6.76654C3.38941 6.55441 3.58422 6.39285 3.81561 6.31041L3.93228 6.27708L17.4739 3.15208ZM15.625 14.5833H14.5833C14.3282 14.5834 14.0819 14.677 13.8913 14.8466C13.7006 15.0161 13.5788 15.2497 13.5489 15.5031L13.5417 15.625V19.7917H16.6667V15.625C16.6666 15.3699 16.5729 15.1236 16.4034 14.9329C16.2339 14.7423 16.0002 14.6205 15.7469 14.5906L15.625 14.5833ZM8.33332 7.39896L6.24998 7.88021V19.7917H8.33332V7.39896ZM13.5417 6.19687L10.4167 6.91875V10.4167H13.5417V6.19687Z" fill="#0F52BA"/>
</g>
<defs>
<clipPath id="clip0_127_5">
<rect width="25" height="25" fill="white"/>
</clipPath>
</defs>
</svg>
