<svg width="40" height="40" viewBox="0 0 40 40" fill="none" xmlns="http://www.w3.org/2000/svg">
<path d="M30.8333 21.6667C27.6667 21.6667 25 24.35 25 27.5C25 31.85 30.8333 38.3333 30.8333 38.3333C30.8333 38.3333 36.6667 31.85 36.6667 27.5C36.6667 24.35 34 21.6667 30.8333 21.6667ZM30.8333 29.6833C29.6667 29.6833 28.8333 28.6833 28.8333 27.6833C28.8333 26.5167 29.8333 25.6833 30.8333 25.6833C31.8333 25.6833 32.8333 26.6667 32.8333 27.6833C33 28.6833 32 29.6833 30.8333 29.6833ZM26.5167 38.3333H11.6667C10.7826 38.3333 9.93476 37.9821 9.30964 37.357C8.68452 36.7319 8.33333 35.884 8.33333 35V4.99999C8.33333 3.14999 9.81666 1.66666 11.6667 1.66666H28.3333C29.2174 1.66666 30.0652 2.01785 30.6904 2.64297C31.3155 3.26809 31.6667 4.11593 31.6667 4.99999V18.3833C31.4 18.3333 31.1167 18.3333 30.8333 18.3333C30 18.3333 29.1667 18.4667 28.3333 18.7V8.33332H11.6667V31.6667H22.5667C23.5667 34.1667 25.2 36.6167 26.5167 38.3333Z" fill="white"/>
</svg>
