<svg width="40" height="40" viewBox="0 0 40 40" fill="none" xmlns="http://www.w3.org/2000/svg">
<path d="M24.2888 2.05999C23.9661 1.87562 23.5835 1.82682 23.2249 1.92432C22.8664 2.02182 22.5611 2.25763 22.3763 2.57999L22.375 2.58249L17.41 11.1825L16.81 10.9212C15.329 10.2698 13.6638 10.1701 12.1157 10.6401C10.5675 11.1102 9.23882 12.1189 8.37001 13.4837L8.36126 13.4975L8.35251 13.5125L8.35001 13.5112L1.85001 24.3612L1.84376 24.37V24.38H1.84126C1.26333 25.3849 1.10709 26.5778 1.40673 27.6976C1.70636 28.8175 2.43747 29.773 3.44001 30.355C4.21281 30.8108 5.10876 31.0136 6.00251 30.935L5.93001 31.0625L5.92876 31.0637C5.67135 31.5084 5.51514 32.0043 5.47126 32.5162L4.99626 36.82V36.83C4.91751 37.8462 6.05626 38.4875 6.88501 37.9175L6.89751 37.91L10.3375 35.3075C10.695 35.055 11.0063 34.7325 11.2438 34.365V34.3775C11.2439 35.2996 11.5353 36.1982 12.0765 36.9448C12.6177 37.6914 13.381 38.2479 14.2574 38.5349C15.1337 38.8218 16.0784 38.8245 16.9563 38.5426C17.8343 38.2606 18.6008 37.7085 19.1463 36.965C19.305 37.115 19.4738 37.2575 19.6525 37.39C20.9525 38.35 22.6513 38.7525 24.3813 38.7525H35.9313C36.6198 38.7525 37.2841 38.4988 37.7974 38.0399C38.3107 37.5811 38.6369 36.9492 38.7138 36.265H38.7438V33.825H38.7463V22.75C38.7459 22.0622 38.544 21.3895 38.1654 20.8152C37.7868 20.2409 37.2483 19.7902 36.6163 19.5187L23.1788 13.6862L27.785 5.70249L27.7875 5.69874C27.9719 5.3761 28.0207 4.99349 27.9232 4.63491C27.8257 4.27633 27.5899 3.9711 27.2675 3.78624L27.2638 3.78499L24.295 2.06249L24.2888 2.05999ZM16.1538 13.3575L12.8338 19.1075C12.1774 19.4239 11.6338 19.9339 11.2763 20.5687L7.26626 27.5075C7.09982 27.794 6.86139 28.0321 6.5746 28.198C6.28781 28.364 5.96262 28.4522 5.63126 28.4537C5.30522 28.4555 4.98477 28.3691 4.70376 28.2037L4.69876 28.2012C4.48249 28.0792 4.29263 27.9154 4.14019 27.7193C3.98775 27.5233 3.87578 27.2989 3.81077 27.0592C3.74577 26.8195 3.72902 26.5693 3.7615 26.3231C3.79399 26.0769 3.87506 25.8396 4.00001 25.625L10.475 14.8175C11.0238 13.9568 11.8627 13.3211 12.8397 13.0255C13.8168 12.7299 14.8674 12.794 15.8013 13.2062H15.8063L16.1538 13.3575ZM18.87 21.155L21.9238 15.8625L35.625 21.8125L35.6213 21.8075C35.8068 21.8851 35.9652 22.0159 36.0764 22.1834C36.1877 22.3509 36.2468 22.5476 36.2463 22.7487V23.7412H36.2438V33.7662H28.9813C28.6625 33.7662 28.3513 33.7412 28.0463 33.6962L27.2425 33.52C26.0273 33.169 24.963 32.4247 24.2163 31.4037C23.2163 30.0362 21.3788 29.6912 19.9488 30.485L19.9475 30.4862C19.085 30.9675 18.065 31.5362 17.2625 31.9862L15.8713 32.7612L15.8575 32.77C15.2823 33.1008 14.5994 33.19 13.9585 33.018C13.3176 32.846 12.7711 32.4268 12.4388 31.8525C12.1085 31.2769 12.0199 30.5938 12.1923 29.953C12.3648 29.3122 12.7842 28.7659 13.3588 28.4337L18.64 25.3837C18.8665 25.3037 19.0651 25.1601 19.212 24.9701C19.359 24.7801 19.4481 24.5518 19.4688 24.3125C19.5965 23.2235 19.3875 22.1216 18.87 21.155ZM6.91126 31.88L10.1425 33.7625C9.99541 33.9677 9.815 34.1468 9.60876 34.2925L9.60001 34.2987L7.70626 35.7312L6.45501 35.0025L6.71501 32.6475V32.6337C6.74001 32.3662 6.80626 32.1112 6.91126 31.88ZM24.24 9.34624L20.99 7.48124L22.21 5.36624L25.4538 7.24124L24.24 9.34624Z" fill="white"/>
</svg>
