<svg width="40" height="40" viewBox="0 0 40 40" fill="none" xmlns="http://www.w3.org/2000/svg">
<path d="M5 5V36.6667L10 33.3333L15 36.6667L20 33.3333L22.1667 34.7667C21.8333 33.8 21.6667 32.75 21.6667 31.6667C21.6677 30.0671 22.0521 28.491 22.7878 27.0706C23.5234 25.6502 24.5887 24.4268 25.8945 23.5029C27.2004 22.5791 28.7086 21.9817 30.2929 21.7608C31.8771 21.5399 33.4913 21.7019 35 22.2333V5H5ZM28.3333 11.6667V15H11.6667V11.6667H28.3333ZM25 18.3333V21.6667H11.6667V18.3333H25ZM25.8333 31.6667L30.4167 36.6667L38.3333 28.7167L36.4 26.3667L30.4167 32.35L27.7667 29.7L25.8333 31.6667Z" fill="white"/>
</svg>
