<svg width="40" height="40" viewBox="0 0 40 40" fill="none" xmlns="http://www.w3.org/2000/svg">
<path d="M25 23.3333C20.55 23.3333 11.6667 25.55 11.6667 30V33.3333H38.3333V30C38.3333 25.55 29.45 23.3333 25 23.3333ZM25 20C26.7681 20 28.4638 19.2976 29.714 18.0474C30.9643 16.7971 31.6667 15.1014 31.6667 13.3333C31.6667 11.5652 30.9643 9.86953 29.714 8.61929C28.4638 7.36904 26.7681 6.66667 25 6.66667C23.2319 6.66667 21.5362 7.36904 20.286 8.61929C19.0357 9.86953 18.3333 11.5652 18.3333 13.3333C18.3333 15.1014 19.0357 16.7971 20.286 18.0474C21.5362 19.2976 23.2319 20 25 20ZM8.33333 22.1333L12.4167 24.6167L11.3333 19.9333L15 16.8L10.1833 16.3833L8.33333 11.9833L6.45 16.3833L1.66666 16.8L5.3 19.9333L4.16666 24.6167L8.33333 22.1333Z" fill="black"/>
</svg>
