<svg width="40" height="40" viewBox="0 0 40 40" fill="none" xmlns="http://www.w3.org/2000/svg">
<g clip-path="url(#clip0_99_6)">
<path fill-rule="evenodd" clip-rule="evenodd" d="M21.3333 2.71467V0H18.6667V2.71467C14.5441 3.03238 10.6708 4.81336 7.74611 7.73614C4.82137 10.6589 3.0378 14.531 2.71733 18.6533H0V21.32H2.71733C3.03659 25.4451 4.81912 29.3205 7.74353 32.2473C10.6679 35.1742 14.5418 36.96 18.6667 37.2827V40H21.3333V37.2827C25.4582 36.96 29.3321 35.1742 32.2565 32.2473C35.1809 29.3205 36.9634 25.4451 37.2827 21.32H40V18.6533H37.2827C36.9622 14.531 35.1786 10.6589 32.2539 7.73614C29.3292 4.81336 25.4559 3.03238 21.3333 2.71467ZM21.3333 8V18.6533H32V21.32H21.3333V32H18.6667V21.32H8V18.6533H18.6667V8H21.3333Z" fill="black"/>
</g>
<defs>
<clipPath id="clip0_99_6">
<rect width="40" height="40" fill="white"/>
</clipPath>
</defs>
</svg>
