<svg width="40" height="40" viewBox="0 0 40 40" fill="none" xmlns="http://www.w3.org/2000/svg">
<path d="M20 1.66666C16.0218 1.66666 12.2064 3.24702 9.3934 6.06006C6.58035 8.87311 5 12.6884 5 16.6667V28.3333C5 31.1 7.23333 33.3333 10 33.3333H15V20H8.33333V16.6667C8.33333 10.2167 13.55 5 20 5C26.45 5 31.6667 10.2167 31.6667 16.6667V20H25V33.3333H30C32.7667 33.3333 35 31.1 35 28.3333V16.6667C35 12.6884 33.4196 8.87311 30.6066 6.06006C27.7936 3.24702 23.9782 1.66666 20 1.66666Z" fill="white"/>
</svg>
