<svg width="40" height="40" viewBox="0 0 40 40" fill="none" xmlns="http://www.w3.org/2000/svg">
<path fill-rule="evenodd" clip-rule="evenodd" d="M11.91 11.61C10.6347 12.8669 9.65994 14.3958 9.05871 16.0824C8.45747 17.7691 8.24528 19.5698 8.43799 21.35C8.49369 21.8778 8.33744 22.4061 8.00363 22.8187C7.66981 23.2312 7.18577 23.4943 6.65799 23.55C6.13021 23.6057 5.60192 23.4495 5.18934 23.1156C4.77676 22.7818 4.51369 22.2978 4.45799 21.77C4.20255 19.392 4.48754 16.9871 5.29167 14.7347C6.09581 12.4822 7.39833 10.4406 9.10199 8.762C15.374 2.578 25.482 2.682 31.68 8.966C37.88 15.252 37.842 25.362 31.572 31.546C28.6692 34.4139 24.772 36.0515 20.692 36.118C19.15 36.1452 17.6122 35.9498 16.126 35.538C15.867 35.4734 15.6236 35.3576 15.41 35.1975C15.1965 35.0373 15.0172 34.836 14.8826 34.6055C14.7481 34.375 14.6611 34.1198 14.6267 33.8551C14.5923 33.5904 14.6112 33.3215 14.6824 33.0643C14.7536 32.807 14.8755 32.5666 15.041 32.3572C15.2065 32.1478 15.4123 31.9737 15.6462 31.845C15.8801 31.7164 16.1373 31.6359 16.4028 31.6082C16.6683 31.5806 16.9366 31.6063 17.192 31.684C18.3077 31.9933 19.4624 32.1395 20.62 32.118C23.6733 32.0699 26.5901 30.8447 28.762 28.698C33.448 24.078 33.492 16.5 28.832 11.776C24.172 7.05 16.594 6.99 11.91 11.61Z" fill="white"/>
<path fill-rule="evenodd" clip-rule="evenodd" d="M7.93399 23.39C7.75935 23.5862 7.54777 23.7461 7.31132 23.8606C7.07488 23.975 6.81821 24.0417 6.55596 24.057C6.29372 24.0722 6.03105 24.0356 5.78295 23.9493C5.53485 23.863 5.30617 23.7287 5.10999 23.554L1.66999 20.494C1.27376 20.1413 1.03388 19.6456 1.00312 19.116C0.972367 18.5864 1.15326 18.0662 1.50599 17.67C1.85873 17.2738 2.35442 17.0339 2.88403 17.0031C3.41363 16.9724 3.93376 17.1533 4.32999 17.506L7.76999 20.566C7.96621 20.7406 8.12611 20.9522 8.24055 21.1887C8.35499 21.4251 8.42173 21.6818 8.43696 21.944C8.45219 22.2063 8.41561 22.4689 8.32931 22.717C8.24301 22.9651 8.10868 23.1938 7.93399 23.39Z" fill="white"/>
<path fill-rule="evenodd" clip-rule="evenodd" d="M4.83999 23.2C4.99757 23.4101 5.195 23.5871 5.421 23.7209C5.647 23.8548 5.89714 23.9428 6.15714 23.9799C6.41715 24.017 6.68192 24.0026 6.93635 23.9374C7.19078 23.8722 7.42987 23.7576 7.63999 23.6L11.64 20.6C12.0643 20.2817 12.3449 19.8079 12.4199 19.2828C12.4949 18.7577 12.3582 18.2243 12.04 17.8C11.7217 17.3757 11.2479 17.0951 10.7228 17.0201C10.1977 16.9451 9.66433 17.0817 9.23999 17.4L5.23999 20.4C5.02987 20.5576 4.85285 20.755 4.71904 20.981C4.58522 21.207 4.49723 21.4572 4.46009 21.7172C4.42294 21.9772 4.43738 22.2419 4.50256 22.4964C4.56774 22.7508 4.6824 22.9899 4.83999 23.2ZM20 12C20.5304 12 21.0391 12.2107 21.4142 12.5858C21.7893 12.9609 22 13.4696 22 14V21C22 21.5304 21.7893 22.0391 21.4142 22.4142C21.0391 22.7893 20.5304 23 20 23C19.4696 23 18.9608 22.7893 18.5858 22.4142C18.2107 22.0391 18 21.5304 18 21V14C18 13.4696 18.2107 12.9609 18.5858 12.5858C18.9608 12.2107 19.4696 12 20 12Z" fill="white"/>
<path fill-rule="evenodd" clip-rule="evenodd" d="M28 21C28 21.5304 27.7893 22.0391 27.4142 22.4142C27.0391 22.7893 26.5304 23 26 23H20C19.4696 23 18.9609 22.7893 18.5858 22.4142C18.2107 22.0391 18 21.5304 18 21C18 20.4696 18.2107 19.9609 18.5858 19.5858C18.9609 19.2107 19.4696 19 20 19H26C26.5304 19 27.0391 19.2107 27.4142 19.5858C27.7893 19.9609 28 20.4696 28 21Z" fill="white"/>
</svg>
