<svg width="20" height="20" viewBox="0 0 20 20" fill="none" xmlns="http://www.w3.org/2000/svg">
<path d="M7.50001 15.8333H12.5V17.5H7.50001C5.20001 17.5 3.33334 15.6333 3.33334 13.3333V5.83334H5.00001V13.3333C5.00001 14.7167 6.11668 15.8333 7.50001 15.8333ZM8.68334 4.50834C9.33334 3.85834 9.33334 2.80001 8.68334 2.15001C8.03334 1.50001 6.97501 1.50001 6.32501 2.15001C5.67501 2.80001 5.67501 3.85834 6.32501 4.50834C6.97501 5.16667 8.02501 5.16667 8.68334 4.50834ZM9.58334 7.50001C9.58334 6.58334 8.83334 5.83334 7.91668 5.83334H7.50001C6.58334 5.83334 5.83334 6.58334 5.83334 7.50001V12.5C5.83334 13.8833 6.95001 15 8.33334 15H12.5583L15.475 17.9167L16.6667 16.725L12.4417 12.5H9.58334V7.50001Z" fill="#AFAFAF"/>
</svg>
