<svg width="20" height="20" viewBox="0 0 20 20" fill="none" xmlns="http://www.w3.org/2000/svg">
<path d="M1.66666 7.5C1.66666 5.92833 1.66666 5.14333 2.15499 4.655C2.64332 4.16666 3.42832 4.16666 4.99999 4.16666H15C16.5717 4.16666 17.3567 4.16666 17.845 4.655C18.3333 5.14333 18.3333 5.92833 18.3333 7.5C18.3333 7.8925 18.3333 8.08916 18.2117 8.21166C18.0892 8.33333 17.8917 8.33333 17.5 8.33333H2.49999C2.10749 8.33333 1.91082 8.33333 1.78832 8.21166C1.66666 8.08916 1.66666 7.89166 1.66666 7.5ZM1.66666 15C1.66666 16.5717 1.66666 17.3567 2.15499 17.845C2.64332 18.3333 3.42832 18.3333 4.99999 18.3333H15C16.5717 18.3333 17.3567 18.3333 17.845 17.845C18.3333 17.3567 18.3333 16.5717 18.3333 15V10.8333C18.3333 10.4408 18.3333 10.2442 18.2117 10.1217C18.0892 10 17.8917 10 17.5 10H2.49999C2.10749 10 1.91082 10 1.78832 10.1217C1.66666 10.2442 1.66666 10.4417 1.66666 10.8333V15Z" fill="white"/>
<path d="M5.83331 2.5V5M14.1666 2.5V5" stroke="white" stroke-width="2" stroke-linecap="round"/>
</svg>
