<svg width="20" height="20" viewBox="0 0 20 20" fill="none" xmlns="http://www.w3.org/2000/svg">
<g clip-path="url(#clip0_71_21)">
<path d="M13.125 17.5H0.625C0.28125 17.5 0 17.7812 0 18.125V19.375C0 19.7188 0.28125 20 0.625 20H13.125C13.4688 20 13.75 19.7188 13.75 19.375V18.125C13.75 17.7812 13.4688 17.5 13.125 17.5ZM19.2656 4.19141L16.1016 1.02734C15.8594 0.785156 15.4609 0.785156 15.2188 1.02734L14.7773 1.46875C14.5352 1.71094 14.5352 2.10938 14.7773 2.35156L16.25 3.82422V6.25C16.25 7.34766 17.0664 8.25391 18.125 8.40625V14.6875C18.125 15.2031 17.7031 15.625 17.1875 15.625C16.6719 15.625 16.25 15.2031 16.25 14.6875V13.4375C16.25 11.5391 14.7109 10 12.8125 10H12.5V2.5C12.5 1.12109 11.3789 0 10 0H3.75C2.37109 0 1.25 1.12109 1.25 2.5V16.25H12.5V11.875H12.8125C13.6758 11.875 14.375 12.5742 14.375 13.4375V14.5234C14.375 15.9961 15.4297 17.3359 16.8945 17.4883C18.5742 17.6563 20 16.3359 20 14.6875V5.96094C20 5.29688 19.7344 4.66016 19.2656 4.19141ZM10 7.5H3.75V2.5H10V7.5Z" fill="#AFAFAF"/>
</g>
<defs>
<clipPath id="clip0_71_21">
<rect width="20" height="20" fill="white"/>
</clipPath>
</defs>
</svg>
