<svg width="20" height="20" viewBox="0 0 20 20" fill="none" xmlns="http://www.w3.org/2000/svg">
<path d="M8.70834 12.9167C9.05556 13.2639 9.49306 13.4272 10.0208 13.4067C10.5486 13.3861 10.9306 13.195 11.1667 12.8333L15.8333 5.83333L8.83334 10.5C8.47223 10.75 8.27445 11.1283 8.24 11.635C8.20556 12.1417 8.36167 12.5689 8.70834 12.9167ZM4.25 16.6667C3.94445 16.6667 3.66334 16.6006 3.40667 16.4683C3.15 16.3361 2.945 16.1383 2.79167 15.875C2.43056 15.2222 2.15278 14.5453 1.95834 13.8442C1.76389 13.1431 1.66667 12.4172 1.66667 11.6667C1.66667 10.5139 1.88556 9.43055 2.32334 8.41666C2.76112 7.40277 3.35473 6.52083 4.10417 5.77083C4.85417 5.02083 5.73612 4.42722 6.75001 3.99C7.76389 3.55277 8.84723 3.33388 10 3.33333C11.1389 3.33333 12.2083 3.54861 13.2083 3.97916C14.2083 4.40972 15.0833 4.99666 15.8333 5.74C16.5833 6.48277 17.1806 7.35083 17.625 8.34416C18.0694 9.33749 18.2986 10.4033 18.3125 11.5417C18.3264 12.3056 18.2397 13.0522 18.0525 13.7817C17.8653 14.5111 17.5769 15.2089 17.1875 15.875C17.0347 16.1389 16.83 16.3369 16.5733 16.4692C16.3167 16.6014 16.035 16.6672 15.7283 16.6667H4.25Z" fill="#AFAFAF"/>
</svg>
