<svg width="20" height="20" viewBox="0 0 20 20" fill="none" xmlns="http://www.w3.org/2000/svg">
<path d="M10.8333 16.6C12.3333 16.4167 13.625 15.7917 14.7083 14.7083C15.7917 13.625 16.4167 12.3333 16.6 10.8333H14.1C13.9167 11.6667 13.5333 12.3667 12.95 12.95C12.3667 13.5333 11.6667 13.9167 10.8333 14.1V16.6ZM8.33332 6.66667H11.6667L14.1667 9.16667H16.6C16.3917 7.54167 15.6583 6.15001 14.3917 5.00001C13.1333 3.88334 11.6667 3.33334 9.99999 3.33334C8.33332 3.33334 6.86666 3.88334 5.60832 5.00001C4.34166 6.15001 3.60832 7.54167 3.39999 9.16667H5.83332L8.33332 6.66667ZM9.16666 16.6V14.1C8.33332 13.9167 7.63332 13.5333 7.04999 12.95C6.46666 12.3667 6.08332 11.6667 5.89999 10.8333H3.39999C3.58332 12.3083 4.20832 13.5833 5.29166 14.6667C6.37499 15.75 7.66666 16.3917 9.16666 16.6ZM9.99999 1.66667C12.2917 1.66667 14.25 2.5 15.875 4.12501C17.5 5.75001 18.3333 7.70834 18.3333 10C18.3333 12.2917 17.5 14.25 15.875 15.875C14.25 17.5 12.2917 18.3333 9.99999 18.3333C7.70832 18.3333 5.74999 17.5 4.12499 15.875C2.49999 14.25 1.66666 12.2917 1.66666 10C1.66666 7.70834 2.49999 5.75001 4.12499 4.12501C5.74999 2.5 7.70832 1.66667 9.99999 1.66667Z" fill="#AFAFAF"/>
</svg>
