<svg width="40" height="40" viewBox="0 0 40 40" fill="none" xmlns="http://www.w3.org/2000/svg">
<path fill-rule="evenodd" clip-rule="evenodd" d="M2.5 8.125C2.5 7.62772 2.69754 7.15081 3.04917 6.79917C3.40081 6.44754 3.87772 6.25 4.375 6.25H35.625C36.1223 6.25 36.5992 6.44754 36.9508 6.79917C37.3025 7.15081 37.5 7.62772 37.5 8.125C37.5 8.62228 37.3025 9.09919 36.9508 9.45083C36.5992 9.80246 36.1223 10 35.625 10H4.375C3.87772 10 3.40081 9.80246 3.04917 9.45083C2.69754 9.09919 2.5 8.62228 2.5 8.125ZM2.5 20C2.5 19.5027 2.69754 19.0258 3.04917 18.6742C3.40081 18.3225 3.87772 18.125 4.375 18.125H25.625C26.1223 18.125 26.5992 18.3225 26.9508 18.6742C27.3025 19.0258 27.5 19.5027 27.5 20C27.5 20.4973 27.3025 20.9742 26.9508 21.3258C26.5992 21.6775 26.1223 21.875 25.625 21.875H4.375C3.87772 21.875 3.40081 21.6775 3.04917 21.3258C2.69754 20.9742 2.5 20.4973 2.5 20ZM4.375 30C3.87772 30 3.40081 30.1975 3.04917 30.5492C2.69754 30.9008 2.5 31.3777 2.5 31.875C2.5 32.3723 2.69754 32.8492 3.04917 33.2008C3.40081 33.5525 3.87772 33.75 4.375 33.75H10.625C11.1223 33.75 11.5992 33.5525 11.9508 33.2008C12.3025 32.8492 12.5 32.3723 12.5 31.875C12.5 31.3777 12.3025 30.9008 11.9508 30.5492C11.5992 30.1975 11.1223 30 10.625 30H4.375Z" fill="#F39C12"/>
</svg>
