<svg width="20" height="20" viewBox="0 0 20 20" fill="none" xmlns="http://www.w3.org/2000/svg">
<g clip-path="url(#clip0_25_24)">
<path d="M10.05 11.4389C9.7509 11.4412 9.46117 11.5435 9.22701 11.7297C8.99286 11.9158 8.82778 12.175 8.75809 12.4658C8.68841 12.7567 8.71814 13.0626 8.84254 13.3346C8.96693 13.6066 9.17884 13.8291 9.44445 13.9667V15.5556H10.5556V14.0167C10.8424 13.8991 11.0796 13.6857 11.2266 13.4127C11.3736 13.1398 11.4214 12.8243 11.3617 12.5201C11.302 12.2159 11.1387 11.9418 10.8995 11.7446C10.6602 11.5475 10.36 11.4394 10.05 11.4389Z" fill="#FAFAFA"/>
<path d="M14.4444 8.33332V5.95554C14.4683 4.75103 14.0141 3.58612 13.1811 2.7157C12.3482 1.84528 11.2044 1.34024 10 1.3111C8.79561 1.34024 7.6518 1.84528 6.81886 2.7157C5.98593 3.58612 5.53169 4.75103 5.55555 5.95554V8.33332H3.88889V17.7778C3.88889 18.0724 4.00595 18.3551 4.21432 18.5634C4.4227 18.7718 4.70531 18.8889 5 18.8889H15C15.2947 18.8889 15.5773 18.7718 15.7857 18.5634C15.994 18.3551 16.1111 18.0724 16.1111 17.7778V8.33332H14.4444ZM6.66666 5.95554C6.64271 5.04567 6.97986 4.16331 7.60445 3.50125C8.22903 2.83919 9.09028 2.45125 10 2.42221C10.9097 2.45125 11.771 2.83919 12.3955 3.50125C13.0201 4.16331 13.3573 5.04567 13.3333 5.95554V8.33332H6.66666V5.95554ZM5 17.7778V9.44443H15V17.7778H5Z" fill="#FAFAFA"/>
</g>
<defs>
<clipPath id="clip0_25_24">
<rect width="20" height="20" fill="white"/>
</clipPath>
</defs>
</svg>
