<svg width="100" height="100" viewBox="0 0 100 100" fill="none" xmlns="http://www.w3.org/2000/svg">
<path d="M78.3334 56.6525C73.7385 56.6525 70 60.3908 70 64.9859C70 69.5809 73.7383 73.3193 78.3334 73.3193C82.9283 73.3193 86.6668 69.5811 86.6668 64.9859C86.6666 60.391 82.9283 56.6525 78.3334 56.6525ZM78.3334 69.9859C75.5768 69.9859 73.3334 67.7426 73.3334 64.9859C73.3334 62.2293 75.5768 59.9859 78.3334 59.9859C81.09 59.9859 83.3334 62.2293 83.3334 64.9859C83.3334 67.7426 81.09 69.9859 78.3334 69.9859Z" fill="black"/>
<path d="M23.3334 56.6525C18.7385 56.6525 15 60.3908 15 64.9859C15 69.5809 18.7383 73.3193 23.3334 73.3193C27.9285 73.3193 31.6668 69.5811 31.6668 64.9859C31.6666 60.391 27.9283 56.6525 23.3334 56.6525ZM23.3334 69.9859C20.5768 69.9859 18.3334 67.7426 18.3334 64.9859C18.3334 62.2293 20.5768 59.9859 23.3334 59.9859C26.09 59.9859 28.3334 62.2293 28.3334 64.9859C28.3334 67.7426 26.09 69.9859 23.3334 69.9859Z" fill="black"/>
<path d="M99.5117 55.4742L98.3334 54.2959V43.3191C98.3334 42.3992 97.5867 41.6525 96.6668 41.6525H68.3334V28.3559C68.3334 27.4408 67.5951 26.6959 66.6783 26.6893C38.2217 26.476 32.3301 30.2326 22.3967 41.851C10.9184 42.8643 2.30996 47.901 1.70176 54.2609L0.488281 55.4742C0.175 55.7859 0 56.2109 0 56.6525V59.9859C0 60.4275 0.175 60.8525 0.488281 61.1643L1.6666 62.3426V64.9859C1.6666 65.9059 2.41328 66.6525 3.3332 66.6525H10C10.9199 66.6525 11.6666 65.9059 11.6666 64.9859C11.6666 58.5525 16.9 53.3193 23.3332 53.3193C29.7664 53.3193 34.9998 58.5527 34.9998 64.9859C34.9998 65.9059 35.7465 66.6525 36.6664 66.6525H65C65.9199 66.6525 66.6666 65.9059 66.6666 64.9859C66.6666 58.5525 71.9 53.3193 78.3332 53.3193C84.7666 53.3193 89.9998 58.5527 89.9998 64.9859C89.9998 65.9059 90.7465 66.6525 91.6664 66.6525H96.6664C97.108 66.6525 97.533 66.4775 97.8447 66.1643L99.5113 64.4977C99.8246 64.1844 99.9996 63.7609 99.9996 63.3193V56.6527C100 56.2109 99.825 55.7859 99.5117 55.4742ZM51.6666 30.4492C55.4 30.1426 59.7967 30.0109 65 30.0143V41.651H51.6666V30.4492ZM48.3334 30.7893V41.6525H26.9916C32.5018 35.5209 37.1617 32.1727 48.3334 30.7893ZM96.6666 62.6293L95.9766 63.3193H93.2416C92.41 55.8293 86.0416 49.9859 78.3332 49.9859C70.6248 49.9859 64.2564 55.8293 63.4248 63.3193H38.2416C37.41 55.8293 31.0416 49.9859 23.3332 49.9859C15.6248 49.9859 9.25644 55.8293 8.4248 63.3193H5V61.6527C5 61.2111 4.825 60.7861 4.51172 60.4744L3.3334 59.2961V57.3428L4.51172 56.1645C4.825 55.8512 5 55.4277 5 54.9861C5 54.4527 5.12324 53.9162 5.33008 53.3828L8.36836 53.3195C9.28828 53.2996 10.0184 52.5379 10 51.6178C9.98008 50.6979 9.19492 49.9979 8.29824 49.9861L8.07656 49.9912C11.6949 47.1545 18.2799 44.9861 26.6648 44.9861H94.9982V48.3195H93.3316C92.4117 48.3195 91.665 49.0662 91.665 49.9861C91.665 50.9061 92.4117 51.6527 93.3316 51.6527H94.9982V54.9861C94.9982 55.4277 95.1732 55.8527 95.4865 56.1645L96.6666 57.3428V62.6293Z" fill="black"/>
</svg>
