<svg width="100" height="100" viewBox="0 0 100 100" fill="none" xmlns="http://www.w3.org/2000/svg">
<g clip-path="url(#clip0_83_25)">
<path d="M92.0473 43.5989C92.0074 43.5819 91.9667 43.567 91.9257 43.5529C91.4237 43.3681 90.8953 43.1935 90.3324 43.0333C83.7694 41.1656 70.1451 41.1442 69.5683 41.1442H66.6929L61.025 31.6442C58.4397 27.3317 56.0158 24.9949 50.6152 24.9949C50.6145 24.9949 50.6129 24.9949 50.6123 24.9949L28.733 24.9982C24.402 24.9989 20.1004 27.9134 17.5069 32.6042C17.5 32.6165 17.4933 32.6288 17.4871 32.6413L14.8982 37.5958L5.14464 38.771C5.10938 38.7752 5.07411 38.7806 5.03906 38.7868C1.9308 39.3518 0 41.6607 0 44.8127V56.6929C0 61.5308 4.05558 63.85 7.15536 64.6781C7.36339 70.4074 12.0864 75.0049 17.8656 75.0049C23.1667 75.0049 27.5786 71.1346 28.4317 66.0712H71.6654C72.5188 71.1346 76.9315 75.0049 82.2339 75.0049C87.535 75.0049 91.9469 71.1346 92.8 66.0712H98.2143C99.2004 66.0712 100 65.2717 100 64.2855V53.8875C100 50.4728 98.5643 46.0467 92.0473 43.5989ZM95.3049 50.09L91.146 50.0908V48.3408C91.146 48.1364 91.283 47.6891 91.6362 47.283C93.2902 48.0183 94.5103 48.9504 95.3049 50.09ZM62.5342 41.1442H26.7975C26.4775 41.1442 26.2489 41.0179 26.1645 40.8926C26.0435 40.7132 26.14 40.3842 26.2047 40.2112L28.1301 36.2145C28.9263 34.5835 30.1069 33.8877 32.0779 33.8877H58.2049L62.5342 41.1442ZM3.57143 46.3877H5.3596C6.3442 46.3877 7.14531 47.1888 7.14531 48.1734V49.9964H3.57143V46.3877ZM17.8656 71.4337C13.9239 71.4337 10.717 68.2268 10.717 64.285C10.717 60.344 13.9239 57.1375 17.8656 57.1375C21.806 57.1375 25.0118 60.344 25.0118 64.285C25.0118 68.2268 21.806 71.4337 17.8656 71.4337ZM82.2339 71.4337C78.2922 71.4337 75.0853 68.2268 75.0853 64.285C75.0853 60.344 78.2922 57.1375 82.2339 57.1375C86.1743 57.1375 89.3801 60.344 89.3801 64.285C89.3801 68.2268 86.1743 71.4337 82.2339 71.4337ZM96.4286 62.4998H92.8C91.9473 57.4364 87.5353 53.5658 82.2337 53.5658C76.931 53.5658 72.5179 57.4364 71.665 62.4998H28.4317C27.579 57.4364 23.167 53.5658 17.8654 53.5658C13.0674 53.5658 8.99576 56.7342 7.63237 61.0882C5.96629 60.5652 3.57143 59.3509 3.57143 56.6929V53.5679H8.93103C9.91719 53.5679 10.7167 52.7683 10.7167 51.7821V48.1734C10.7167 45.2196 8.31362 42.8163 5.3596 42.8163H4.41027C4.72612 42.575 5.1308 42.406 5.62924 42.3098L16.1397 41.0435C16.7607 41.01 17.3301 40.6531 17.6259 40.0873L20.6424 34.3141C22.608 30.7705 25.7067 28.5699 28.7335 28.5694L50.6129 28.5661C50.6138 28.5661 50.6145 28.5661 50.6154 28.5661C52.9406 28.5661 54.3752 29.0654 55.6509 30.3161H32.0777C28.7317 30.3161 26.3237 31.7732 24.9165 34.6556L22.9576 38.7217C22.9406 38.7569 22.925 38.7924 22.9103 38.8286C22.3196 40.2922 22.4241 41.7346 23.2038 42.8902C23.9752 44.033 25.3185 44.7152 26.7973 44.7152H69.5683C69.696 44.7152 81.61 44.7328 88.1196 46.1605C87.7504 46.9065 87.5743 47.6741 87.5743 48.3406V51.8777C87.5743 52.3516 87.7627 52.8058 88.0978 53.1408C88.4326 53.4754 88.8866 53.6634 89.36 53.6634C89.3605 53.6634 89.3609 53.6634 89.3614 53.6634L96.4239 53.6609C96.4259 53.7362 96.4283 53.8112 96.4283 53.8875V62.4998H96.4286Z" fill="black"/>
<path d="M73.3259 50.0922H26.7976C25.8114 50.0922 25.0118 50.8917 25.0118 51.8779C25.0118 52.8641 25.8114 53.6636 26.7976 53.6636H73.3259C74.3121 53.6636 75.1116 52.8641 75.1116 51.8779C75.1116 50.8915 74.3121 50.0922 73.3259 50.0922Z" fill="black"/>
<path d="M21.3663 62.4996C20.3801 62.4996 19.5806 63.2991 19.5806 64.2853C19.5806 65.2319 18.8109 66.002 17.8647 66.002C16.9181 66.002 16.148 65.2319 16.148 64.2853C16.148 63.3391 16.9181 62.5692 17.8647 62.5692C18.8509 62.5692 19.6505 61.7696 19.6505 60.7835C19.6505 59.7973 18.8509 58.9978 17.8647 58.9978C14.9489 58.9978 12.5766 61.3696 12.5766 64.2853C12.5766 67.2011 14.9489 69.5734 17.8647 69.5734C20.7801 69.5734 23.152 67.2011 23.152 64.2853C23.152 63.2991 22.3527 62.4996 21.3663 62.4996Z" fill="black"/>
<path d="M85.7346 62.4996C84.7485 62.4996 83.9489 63.2991 83.9489 64.2853C83.9489 65.2319 83.1793 66.002 82.2331 66.002C81.2864 66.002 80.5163 65.2319 80.5163 64.2853C80.5163 63.3391 81.2864 62.5692 82.2331 62.5692C83.2192 62.5692 84.0188 61.7696 84.0188 60.7835C84.0188 59.7973 83.2192 58.9978 82.2331 58.9978C79.3172 58.9978 76.9449 61.3696 76.9449 64.2853C76.9449 67.2011 79.3172 69.5734 82.2331 69.5734C85.1485 69.5734 87.5203 67.2011 87.5203 64.2853C87.5203 63.2991 86.721 62.4996 85.7346 62.4996Z" fill="black"/>
</g>
<defs>
<clipPath id="clip0_83_25">
<rect width="100" height="100" fill="white"/>
</clipPath>
</defs>
</svg>
