<svg width="100" height="100" viewBox="0 0 100 100" fill="none" xmlns="http://www.w3.org/2000/svg">
<g clip-path="url(#clip0_83_5)">
<path d="M69.7416 39.5749H30.2581C29.3842 39.5749 28.6757 40.2834 28.6757 41.1573C28.6757 42.0311 29.3842 42.7396 30.2581 42.7396H69.7418C70.6157 42.7396 71.3242 42.0311 71.3242 41.1573C71.3242 40.2834 70.6155 39.5749 69.7416 39.5749Z" fill="black"/>
<path d="M13.7629 46.7482H7.91504C7.04117 46.7482 6.3327 47.4567 6.3327 48.3305C6.3327 49.2044 7.04117 49.9129 7.91504 49.9129H13.7629C16.6527 49.9129 19.0895 51.8902 19.7917 54.5628H8.32033C7.44646 54.5628 6.73799 55.2713 6.73799 56.1452C6.73799 57.019 7.44646 57.7275 8.32033 57.7275H21.5772C22.451 57.7275 23.1595 57.019 23.1595 56.1452C23.1597 50.9635 18.9444 46.7482 13.7629 46.7482Z" fill="black"/>
<path d="M86.2368 49.9129H92.0847C92.9586 49.9129 93.667 49.2044 93.667 48.3305C93.667 47.4567 92.9586 46.7482 92.0847 46.7482H86.2368C81.0554 46.7482 76.84 50.9635 76.84 56.1452C76.84 57.019 77.5485 57.7275 78.4224 57.7275H91.6792C92.5531 57.7275 93.2615 57.019 93.2615 56.1452C93.2615 55.2713 92.5531 54.5628 91.6792 54.5628H80.2081C80.9102 51.8902 83.347 49.9129 86.2368 49.9129Z" fill="black"/>
<path d="M96.7707 39.7937C94.5527 37.4757 91.5407 36.1991 88.2894 36.1991C88.1469 36.1991 88.0052 36.2183 87.868 36.2562L82.7828 37.6611L75.2916 23.2694C73.9504 20.693 70.6245 18.6748 67.7202 18.6748H32.2792C29.3747 18.6748 26.049 20.693 24.7078 23.2694L17.2166 37.6611L12.1314 36.2562C11.9943 36.2183 11.8525 36.1991 11.7101 36.1991C8.45869 36.1991 5.44655 37.4757 3.22874 39.7937C1.01093 42.1117 -0.131726 45.1772 0.0119508 48.435L1.16031 71.3301C1.2025 72.1722 1.89768 72.8334 2.74075 72.8334H3.26819V79.7429C3.26819 80.6168 3.97666 81.3252 4.85053 81.3252H21.4991C22.3729 81.3252 23.0814 80.6168 23.0814 79.7429V77.5804C23.0814 76.7065 22.3729 75.998 21.4991 75.998C20.6252 75.998 19.9167 76.7065 19.9167 77.5804V78.1606H6.43266V72.8334H93.5668V78.1606H80.0829V77.5804C80.0829 76.7065 79.3745 75.998 78.5006 75.998C77.6267 75.998 76.9182 76.7065 76.9182 77.5804V79.7429C76.9182 80.6168 77.6267 81.3252 78.5006 81.3252H95.1491C96.023 81.3252 96.7314 80.6168 96.7314 79.7429V72.8334H97.2589C98.102 72.8334 98.7971 72.1724 98.8393 71.3301L99.9879 48.4257C100.131 45.1772 98.9887 42.1117 96.7707 39.7937ZM96.8268 48.2765L95.754 69.6685H4.24566L3.17325 48.286C3.0684 45.9087 3.90007 43.6698 5.51554 41.9818C7.08395 40.3425 9.20386 39.4184 11.5042 39.3665L17.5917 41.0484C17.5955 41.0494 17.5993 41.0505 17.6033 41.0516L23.5074 42.6826C24.3494 42.9153 25.2211 42.4212 25.4538 41.5788C25.6866 40.7366 25.1924 39.865 24.35 39.6323L20.3359 38.5234L27.5151 24.7311C28.3168 23.191 30.5431 21.8399 32.2794 21.8399H67.7204C69.4566 21.8399 71.683 23.191 72.4847 24.7311L79.6639 38.5234L75.6498 39.6323C74.8074 39.865 74.3133 40.7366 74.546 41.5788C74.7787 42.4212 75.6503 42.9151 76.4925 42.6826L88.4957 39.3665C90.796 39.4186 92.9159 40.3427 94.4843 41.9818C96.0996 43.6698 96.9312 45.9087 96.8268 48.2765Z" fill="black"/>
<path d="M88.2894 33.0346H93.8018C94.6757 33.0346 95.3842 32.3261 95.3842 31.4522C95.3842 30.5784 94.6757 29.8699 93.8018 29.8699H88.2894C87.4155 29.8699 86.707 30.5784 86.707 31.4522C86.707 32.3261 87.4155 33.0346 88.2894 33.0346Z" fill="black"/>
<path d="M6.1977 33.0346H11.7101C12.584 33.0346 13.2925 32.3261 13.2925 31.4522C13.2925 30.5784 12.584 29.8699 11.7101 29.8699H6.1977C5.32382 29.8699 4.61536 30.5784 4.61536 31.4522C4.61536 32.3261 5.32382 33.0346 6.1977 33.0346Z" fill="black"/>
<path d="M67.5502 59.1101H32.4495C31.5757 59.1101 30.8672 59.8185 30.8672 60.6924V64.9215C30.8672 65.7953 31.5757 66.5038 32.4495 66.5038C33.3234 66.5038 34.0319 65.7953 34.0319 64.9215V62.2747H65.9679V64.9215C65.9679 65.7953 66.6764 66.5038 67.5502 66.5038C68.4241 66.5038 69.1326 65.7953 69.1326 64.9215V60.6924C69.1326 59.8185 68.4241 59.1101 67.5502 59.1101Z" fill="black"/>
<path d="M58.775 51.1787C59.6489 51.1787 60.3573 50.4703 60.3573 49.5964C60.3573 48.7225 59.6489 48.0141 58.775 48.0141H41.2246C40.3507 48.0141 39.6422 48.7225 39.6422 49.5964C39.6422 50.4703 40.3507 51.1787 41.2246 51.1787H58.775Z" fill="black"/>
</g>
<defs>
<clipPath id="clip0_83_5">
<rect width="100" height="100" fill="white"/>
</clipPath>
</defs>
</svg>
