<svg width="100" height="100" viewBox="0 0 100 100" fill="none" xmlns="http://www.w3.org/2000/svg">
<path d="M75 59.1666C70.4051 59.1666 66.6666 62.9049 66.6666 67.5C66.6666 72.0949 70.4049 75.8334 75 75.8334C79.5949 75.8334 83.3334 72.0951 83.3334 67.5C83.3334 62.9051 79.5949 59.1666 75 59.1666ZM75 72.5C72.2434 72.5 70 70.2566 70 67.5C70 64.7434 72.2434 62.5 75 62.5C77.7566 62.5 80 64.7434 80 67.5C80 70.2566 77.7566 72.5 75 72.5Z" fill="black"/>
<path d="M98.3334 30.8334H93.3334V25.8334C93.3334 24.9135 92.5885 24.1668 91.6668 24.1668H43.3334C42.6518 24.1668 42.04 24.5818 41.7852 25.2135L35.5385 40.8334H5C4.08008 40.8334 3.3334 41.5801 3.3334 42.5V55.8334H1.6666C0.74668 55.8334 0 56.5801 0 57.5V67.5C0 68.4199 0.74668 69.1666 1.6666 69.1666H11.6666C12.5865 69.1666 13.3332 68.4199 13.3332 67.5C13.3332 61.0666 18.5666 55.8334 24.9998 55.8334C31.433 55.8334 36.6664 61.0668 36.6664 67.5C36.6664 68.4199 37.4131 69.1666 38.333 69.1666H61.6664C62.5863 69.1666 63.333 68.4199 63.333 67.5C63.333 61.0666 68.5664 55.8334 74.9996 55.8334C81.4312 55.8334 86.6662 61.0668 86.6662 67.5C86.6662 68.4199 87.4111 69.1666 88.3328 69.1666H95C95.9217 69.1666 96.6666 68.4199 96.6666 67.5V57.5C96.6666 56.5801 95.9217 55.8334 95 55.8334H93.3334V52.5H98.3334C99.2551 52.5 100 51.7533 100 50.8334V32.5C100 31.5801 99.2551 30.8334 98.3334 30.8334ZM66.6666 27.5H90V40.8334H66.6666V27.5ZM44.4617 27.5H63.3334V40.8334H39.1283L44.4617 27.5ZM93.3334 65.8334H89.9066C89.075 58.3434 82.7084 52.5 75 52.5C67.2916 52.5 60.9232 58.3434 60.0916 65.8334H39.9084C39.0768 58.3434 32.7084 52.5 25 52.5C17.2916 52.5 10.9232 58.3434 10.0916 65.8334H3.3334V59.1668H5C5.91992 59.1668 6.6666 58.4201 6.6666 57.5002V50.8336H8.3332C9.25313 50.8336 9.9998 50.0869 9.9998 49.167C9.9998 48.2471 9.25313 47.5004 8.3332 47.5004H6.6666V44.167H90V47.5H88.3334C87.4117 47.5 86.6668 48.2467 86.6668 49.1666C86.6668 50.0865 87.4117 50.8332 88.3334 50.8332H90V57.5C90 58.4199 90.7449 59.1666 91.6666 59.1666H93.3332V65.8334H93.3334ZM96.6666 49.1666H93.3332V34.1666H96.6666V49.1666Z" fill="black"/>
<path d="M25 59.1666C20.4051 59.1666 16.6666 62.9049 16.6666 67.5C16.6666 72.0949 20.4049 75.8334 25 75.8334C29.5949 75.8334 33.3334 72.0951 33.3334 67.5C33.3334 62.9051 29.5949 59.1666 25 59.1666ZM25 72.5C22.2434 72.5 20 70.2566 20 67.5C20 64.7434 22.2434 62.5 25 62.5C27.7566 62.5 30 64.7434 30 67.5C30 70.2566 27.7566 72.5 25 72.5Z" fill="black"/>
</svg>
