<svg width="20" height="20" viewBox="0 0 20 20" fill="none" xmlns="http://www.w3.org/2000/svg">
<path fill-rule="evenodd" clip-rule="evenodd" d="M8.875 2.10625C9.08147 1.75136 9.40775 1.48175 9.7952 1.34588C10.1826 1.21001 10.6059 1.21679 10.9888 1.36501C11.3716 1.51323 11.6891 1.79316 11.8841 2.15448C12.0791 2.51581 12.1388 2.93484 12.0525 3.33625L11.1625 7.5H16.0863C16.4716 7.50002 16.8517 7.58913 17.197 7.76036C17.5422 7.93159 17.8432 8.18031 18.0764 8.48709C18.3096 8.79388 18.4687 9.15042 18.5413 9.52887C18.6139 9.90732 18.5981 10.2974 18.495 10.6688L17.3963 14.6212C17.0771 15.7711 16.3573 16.769 15.3667 17.4345C14.3761 18.1 13.1802 18.3892 11.995 18.25L5.625 17.5L5 8.75L8.875 2.10625ZM3.43625 9.30875C3.42972 9.18437 3.39846 9.06254 3.34431 8.95037C3.29016 8.83821 3.21421 8.73795 3.12088 8.65547C3.02755 8.57299 2.91872 8.50993 2.80075 8.46998C2.68278 8.43003 2.55803 8.41399 2.43378 8.42279C2.30954 8.4316 2.1883 8.46507 2.07714 8.52125C1.96598 8.57744 1.86713 8.65521 1.78637 8.75003C1.7056 8.84485 1.64454 8.95481 1.60674 9.07349C1.56895 9.19217 1.55519 9.31719 1.56625 9.44125L2.19125 18.1913C2.21308 18.436 2.3301 18.6623 2.51713 18.8216C2.70415 18.9809 2.94624 19.0605 3.19131 19.0431C3.43637 19.0257 3.66483 18.9129 3.82752 18.7288C3.99022 18.5447 4.07415 18.3041 4.06125 18.0587L3.43625 9.30875Z" fill="#F39C12"/>
</svg>
