<svg width="30" height="30" viewBox="0 0 30 30" fill="none" xmlns="http://www.w3.org/2000/svg">
<path d="M27.5225 16.6225L22.6238 19.395L18.23 15.0287L22.6588 10.6275L27.5225 13.38C27.8096 13.5423 28.0484 13.7779 28.2145 14.0628C28.3807 14.3476 28.4682 14.6715 28.4682 15.0012C28.4682 15.331 28.3807 15.6549 28.2145 15.9397C28.0484 16.2245 27.8096 16.4602 27.5225 16.6225ZM1.67125 1.15498C1.57849 1.38018 1.53092 1.62143 1.53125 1.86498V28.1362C1.53125 28.4075 1.5875 28.66 1.68625 28.8862L15.63 15.0275L1.67125 1.15498ZM16.93 13.7362L21.0025 9.68873L4.3125 0.243732C3.95476 0.0381509 3.53812 -0.0406861 3.13 0.0199816L16.93 13.7362ZM16.93 16.32L3.18 29.9862C3.5525 30.0312 3.945 29.9662 4.3125 29.7575L20.9675 20.3325L16.93 16.32Z" fill="white"/>
</svg>
