<svg width="20" height="20" viewBox="0 0 20 20" fill="none" xmlns="http://www.w3.org/2000/svg">
<path d="M7.5 8.33334H5.83333V10H7.5V8.33334ZM10.8333 8.33334H9.16667V10H10.8333V8.33334ZM14.1667 8.33334H12.5V10H14.1667V8.33334ZM15.8333 2.50001H15V0.833344H13.3333V2.50001H6.66667V0.833344H5V2.50001H4.16667C3.72464 2.50001 3.30072 2.6756 2.98816 2.98817C2.67559 3.30073 2.5 3.72465 2.5 4.16668V15.8333C2.5 16.2754 2.67559 16.6993 2.98816 17.0119C3.30072 17.3244 3.72464 17.5 4.16667 17.5H15.8333C16.2754 17.5 16.6993 17.3244 17.0118 17.0119C17.3244 16.6993 17.5 16.2754 17.5 15.8333V4.16668C17.5 3.72465 17.3244 3.30073 17.0118 2.98817C16.6993 2.6756 16.2754 2.50001 15.8333 2.50001ZM15.8333 15.8333H4.16667V6.66668H15.8333V15.8333Z" fill="#B2B0B0"/>
</svg>
