<svg width="20" height="20" viewBox="0 0 20 20" fill="none" xmlns="http://www.w3.org/2000/svg">
<g clip-path="url(#clip0_48_6)">
<path d="M10 1.66666C14.6025 1.66666 18.3333 5.39749 18.3333 9.99999C18.3333 14.6025 14.6025 18.3333 10 18.3333C5.3975 18.3333 1.66666 14.6025 1.66666 9.99999C1.66666 5.39749 5.3975 1.66666 10 1.66666ZM10 4.99999C9.77898 4.99999 9.56702 5.08779 9.41074 5.24407C9.25446 5.40035 9.16666 5.61231 9.16666 5.83332V9.99999C9.16671 10.221 9.25454 10.4329 9.41083 10.5892L11.9108 13.0892C12.068 13.241 12.2785 13.3249 12.497 13.3231C12.7155 13.3212 12.9245 13.2335 13.079 13.079C13.2335 12.9245 13.3212 12.7155 13.3231 12.497C13.325 12.2785 13.241 12.068 13.0892 11.9108L10.8333 9.65499V5.83332C10.8333 5.61231 10.7455 5.40035 10.5893 5.24407C10.433 5.08779 10.221 4.99999 10 4.99999Z" fill="#B2B0B0"/>
</g>
<defs>
<clipPath id="clip0_48_6">
<rect width="20" height="20" fill="white"/>
</clipPath>
</defs>
</svg>
