<svg width="25" height="25" viewBox="0 0 25 25" fill="none" xmlns="http://www.w3.org/2000/svg">
<path d="M4.16668 20.8333C3.59376 20.8333 3.10348 20.6295 2.69584 20.2219C2.2882 19.8142 2.08404 19.3236 2.08334 18.75V6.25C2.08334 5.67708 2.28751 5.18681 2.69584 4.77917C3.10418 4.37153 3.59445 4.16736 4.16668 4.16667H20.8333C21.4063 4.16667 21.8969 4.37083 22.3052 4.77917C22.7136 5.1875 22.9174 5.67778 22.9167 6.25V18.75C22.9167 19.3229 22.7129 19.8135 22.3052 20.2219C21.8976 20.6302 21.407 20.834 20.8333 20.8333H4.16668ZM12.5 13.5417L20.8333 8.33333V6.25L12.5 11.4583L4.16668 6.25V8.33333L12.5 13.5417Z" fill="white"/>
</svg>
