<svg width="26" height="26" viewBox="0 0 26 26" fill="none" xmlns="http://www.w3.org/2000/svg">
<path d="M20.9383 4.27719C21.4639 4.27981 21.9691 4.481 22.3526 4.84043C22.7361 5.19985 22.9695 5.69095 23.0062 6.21527L23.0106 6.37155L22.9442 18.8714C22.9416 19.397 22.7404 19.9021 22.381 20.2856C22.0215 20.6691 21.5304 20.9026 21.0061 20.9392L20.8498 20.9436L4.18341 20.8552C3.65782 20.8525 3.15264 20.6513 2.76914 20.2919C2.38565 19.9325 2.15218 19.4414 2.11554 18.9171L2.11116 18.7608L2.17751 6.26097C2.18013 5.73538 2.38132 5.2302 2.74075 4.8467C3.10018 4.46321 3.59127 4.22974 4.1156 4.1931L4.27187 4.18872L20.9383 4.27719ZM20.9194 7.83339L13.652 15.0241C13.3575 15.3151 12.9595 15.4774 12.5454 15.4752C12.1314 15.473 11.7351 15.3065 11.4437 15.0124L4.253 7.74492L4.19447 18.7719L20.8609 18.8603L20.9194 7.83339ZM19.4544 6.35267L5.73371 6.27985L12.5576 13.1766L19.4544 6.35267Z" fill="#AFAFAF"/>
</svg>
