<svg width="30" height="30" viewBox="0 0 30 30" fill="none" xmlns="http://www.w3.org/2000/svg">
<g clip-path="url(#clip0_121_35)">
<path d="M21.2652 8.09661C22.09 8.09661 22.7273 8.66116 23.2147 9.79028C23.702 10.9193 23.9269 12.4247 23.9269 14.3065V23.3388H22.8772V21.2691H22.8397C22.3899 22.9628 21.7526 23.8095 21.0028 23.8095C20.3655 23.8095 19.8032 23.339 19.3533 22.3982C18.941 21.4573 18.6785 20.1401 18.6785 18.7288C18.6785 17.2234 18.9035 16.0001 19.3533 15.0593C19.8032 14.1184 20.4405 13.742 21.1902 13.742C21.865 13.742 22.3899 14.0244 22.8022 14.6829V14.0244C22.8022 13.1462 22.6716 12.2681 22.4103 11.6959L22.3523 11.5781C22.0525 10.9194 21.6776 10.5431 21.2652 10.5431C20.6279 10.5431 20.1406 11.2018 19.8032 12.519L18.8285 11.0132C19.4283 9.03734 20.2155 8.09661 21.2652 8.09661ZM15.9794 1.69852C16.652 1.69852 17.2913 2.28602 17.8024 3.38161L17.8913 3.58013C18.4161 4.70925 18.6785 6.40293 18.6785 8.19058C18.6785 9.97822 18.4161 11.5778 17.8913 12.8009C17.3664 14.0241 16.7292 14.6826 15.9794 14.6826L14.18 14.5885V23.3388H13.0553V1.69852H15.9794ZM21.4151 16C20.9653 16 20.5904 16.2822 20.2905 16.8468C19.9906 17.3172 19.8407 17.9757 19.8407 18.8225C19.8407 19.5753 19.9907 20.2338 20.2155 20.6103C20.478 21.0807 20.7779 21.3629 21.0778 21.3629C21.4976 21.3629 21.9175 20.9531 22.2459 20.21L22.3149 20.0457C22.6898 19.199 22.8772 18.164 22.8772 17.0348C22.5398 16.3763 22.0525 15.9998 21.4152 15.9998M16.0544 4.33278H14.18V11.8603H16.0544C16.4668 11.8603 16.8792 11.484 17.1416 10.7313C17.7414 9.31999 17.7414 6.96778 17.1791 5.55631L17.1416 5.46219C16.8417 4.70955 16.4668 4.23911 16.0544 4.33322M30 8.56705L26.2887 29.9251H25.164L26.551 22.4922L24.1143 8.66116H25.314L27.0759 19.2931H27.1134L28.8378 8.66116H30V8.56705Z" fill="#5F6368"/>
<path d="M9.71883 12.7069C9.71883 11.8602 9.68133 11.0134 9.64383 10.1666H4.95792V14.9652H7.61954C7.5071 16.4704 7.16971 17.8818 6.64489 18.7287V21.8335H8.25686C9.19407 19.6696 9.71889 16.4704 9.71889 12.7071" fill="#4285F4"/>
<path d="M4.95785 24.8444C6.30738 24.8444 7.43203 23.7153 8.25679 21.8335L6.64482 18.7287C6.19494 19.4813 5.63262 19.9518 4.95785 19.9518C3.6832 19.9518 2.55855 17.7878 2.18367 14.7769H0.534256V17.9759C1.39646 22.2099 3.08344 24.8444 4.95785 24.8444Z" fill="#34A853"/>
<path d="M2.1839 14.7769C1.95902 13.2715 1.95902 11.5779 2.1839 9.97839V6.77942H0.534487C-0.177837 10.2607 -0.177837 14.4006 0.534487 17.9759L2.1839 14.7769Z" fill="#FBBC04"/>
<path d="M4.95785 4.89764C5.67012 4.89764 6.34488 5.55631 6.86977 6.7794L8.2943 3.20411C7.39453 1.13411 6.19494 -0.0889815 4.99529 0.00498903C3.12088 0.00498903 1.39647 2.63955 0.571701 6.87352L2.22117 10.0725C2.55856 7.06161 3.6832 4.89764 4.95785 4.89764Z" fill="#EA4335"/>
</g>
<defs>
<clipPath id="clip0_121_35">
<rect width="30" height="30" fill="white"/>
</clipPath>
</defs>
</svg>
