<svg width="30" height="30" viewBox="0 0 30 30" fill="none" xmlns="http://www.w3.org/2000/svg">
<g clip-path="url(#clip0_121_30)">
<path d="M5.45392 29.8509V27.8653C5.45392 27.104 5.09368 26.6077 4.47622 26.6077C4.16755 26.6077 3.8331 26.7401 3.60153 27.1703C3.42153 26.8063 3.16431 26.6077 2.77841 26.6077C2.52106 26.6077 2.26396 26.7069 2.05806 27.071V26.6739H1.51782V29.8509H2.05806V28.0969C2.05806 27.5344 2.28962 27.2695 2.64985 27.2695C3.00985 27.2695 3.19009 27.5674 3.19009 28.0969V29.8509H3.73032V28.0969C3.73032 27.5344 3.98743 27.2695 4.32188 27.2695C4.68212 27.2695 4.86212 27.5674 4.86212 28.0969V29.8509H5.45392ZM13.4544 26.6739H12.5799V25.7142H12.0396V26.6739H11.5508V27.3026H12.0395V28.7588C12.0395 29.487 12.2711 29.9171 12.8885 29.9171C13.1201 29.9171 13.3772 29.8179 13.5574 29.6855L13.403 29.0897C13.2486 29.2221 13.0686 29.2553 12.94 29.2553C12.6827 29.2553 12.5799 29.0567 12.5799 28.7257V27.3026H13.4544V26.6739ZM18.0336 26.6076C17.725 26.6076 17.5192 26.8063 17.3905 27.071V26.6739H16.8503V29.8509H17.3905V28.0639C17.3905 27.5344 17.5705 27.2365 17.905 27.2365C18.0079 27.2365 18.1365 27.2697 18.2394 27.3027L18.3938 26.6409C18.2909 26.6077 18.1365 26.6077 18.0336 26.6077M11.1135 26.9388C10.8561 26.7071 10.496 26.6079 10.1101 26.6079C9.49278 26.6079 9.08122 27.005 9.08122 27.6338C9.08122 28.1634 9.38989 28.4611 9.93013 28.5604L10.1874 28.5936C10.4704 28.6596 10.6247 28.759 10.6247 28.9245C10.6247 29.1561 10.4189 29.3216 10.0587 29.3216C9.69856 29.3216 9.41556 29.1561 9.23544 28.9907L8.97821 29.5201C9.26122 29.7849 9.64712 29.9172 10.0329 29.9172C10.7533 29.9172 11.1649 29.4871 11.1649 28.8913C11.1649 28.3287 10.8305 28.0308 10.3159 27.9317L10.0587 27.8985C9.82712 27.8653 9.64712 27.7993 9.64712 27.6007C9.64712 27.369 9.82712 27.2367 10.1101 27.2367C10.4189 27.2367 10.7276 27.4021 10.8819 27.5014L11.1135 26.9388ZM25.4684 26.6079C25.1596 26.6079 24.9538 26.8064 24.8251 27.0711V26.6741H24.2849V29.851H24.8251V28.064C24.8251 27.5346 25.0052 27.2367 25.3396 27.2367C25.4426 27.2367 25.5713 27.2698 25.6742 27.3029L25.8285 26.641C25.7256 26.6079 25.5713 26.6079 25.4684 26.6079ZM18.5739 28.2626C18.5739 29.2223 19.0883 29.9172 19.8859 29.9172C20.246 29.9172 20.5033 29.818 20.7605 29.5533L20.5033 28.9907C20.2975 29.1892 20.0917 29.2884 19.8601 29.2884C19.4228 29.2884 19.1141 28.8913 19.1141 28.2626C19.1141 27.6669 19.4228 27.2697 19.8601 27.2367C20.0917 27.2367 20.2975 27.3359 20.5033 27.5346L20.7605 26.972C20.5033 26.7071 20.246 26.6079 19.8859 26.6079C19.0883 26.6079 18.5739 27.3029 18.5739 28.2626ZM23.5647 28.2626V26.6741H23.0244V27.0711C22.8443 26.7734 22.5871 26.6079 22.2526 26.6079C21.5581 26.6079 21.0178 27.3029 21.0178 28.2626C21.0178 29.2223 21.5581 29.9172 22.2526 29.9172C22.6127 29.9172 22.8701 29.7519 23.0244 29.454V29.851H23.5647V28.2626ZM21.5837 28.2626C21.5837 27.6999 21.8667 27.2367 22.3297 27.2367C22.7671 27.2367 23.0759 27.6669 23.0759 28.2626C23.0759 28.8252 22.7671 29.2884 22.3297 29.2884C21.8667 29.2553 21.5837 28.8252 21.5837 28.2626ZM15.1267 26.6079C14.4063 26.6079 13.8918 27.2697 13.8918 28.2626C13.8918 29.2554 14.4062 29.9172 15.1524 29.9172C15.5125 29.9172 15.8727 29.7849 16.1557 29.4871L15.8984 28.9907C15.6926 29.1892 15.4354 29.3216 15.1781 29.3216C14.8437 29.3216 14.5092 29.1231 14.432 28.5603H16.2586V28.2957C16.2844 27.2697 15.8214 26.6079 15.1267 26.6079ZM15.1266 27.2035C15.4609 27.2035 15.6926 27.4684 15.7439 27.9648H14.4577C14.5091 27.5346 14.7407 27.2035 15.1266 27.2035ZM28.5295 28.2626V25.4165H27.9893V27.0711C27.8092 26.7734 27.552 26.6079 27.2175 26.6079C26.5229 26.6079 25.9827 27.3029 25.9827 28.2626C25.9827 29.2223 26.5229 29.9172 27.2175 29.9172C27.5777 29.9172 27.835 29.7519 27.9893 29.454V29.851H28.5295V28.2626ZM26.5487 28.2626C26.5487 27.6999 26.8316 27.2367 27.2947 27.2367C27.7321 27.2367 28.0408 27.6669 28.0408 28.2626C28.0408 28.8252 27.7321 29.2884 27.2947 29.2884C26.8316 29.2553 26.5487 28.8252 26.5487 28.2626ZM8.48931 28.2626V26.6741H7.94907V27.0711C7.76896 26.7734 7.51173 26.6079 7.17728 26.6079C6.4827 26.6079 5.94247 27.3029 5.94247 28.2626C5.94247 29.2223 6.4827 29.9172 7.17728 29.9172C7.53751 29.9172 7.79474 29.7519 7.94907 29.454V29.851H8.48931V28.2626ZM6.48271 28.2626C6.48271 27.6999 6.76571 27.2367 7.22872 27.2367C7.66606 27.2367 7.97485 27.6669 7.97485 28.2626C7.97485 28.8252 7.66606 29.2884 7.22872 29.2884C6.76571 29.2553 6.48271 28.8252 6.48271 28.2626Z" fill="black"/>
<path d="M10.9333 2.54819H19.0369V21.2795H10.9333V2.54819Z" fill="#FF5F00"/>
<path d="M11.4479 11.9139C11.4479 8.10814 12.8371 4.73246 14.9722 2.54819C13.4031 0.959699 11.4223 0 9.26133 0C4.14176 0 0 5.32809 0 11.9139C0 18.4996 4.14176 23.8278 9.26121 23.8278C11.4221 23.8278 13.403 22.8681 14.9722 21.2795C12.8371 19.1284 11.4479 15.7197 11.4479 11.9139Z" fill="#EB001B"/>
<path d="M29.9702 11.9139C29.9702 18.4996 25.8285 23.8278 20.709 23.8278C18.5481 23.8278 16.5673 22.8681 14.998 21.2795C17.159 19.0954 18.5224 15.7197 18.5224 11.9139C18.5224 8.10814 17.1332 4.73246 14.998 2.54819C16.5672 0.959699 18.5481 0 20.709 0C25.8285 0 29.9702 5.36126 29.9702 11.9139Z" fill="#F79E1B"/>
</g>
<defs>
<clipPath id="clip0_121_30">
<rect width="30" height="30" fill="white"/>
</clipPath>
</defs>
</svg>
