<svg width="30" height="30" viewBox="0 0 30 30" fill="none" xmlns="http://www.w3.org/2000/svg">
<g clip-path="url(#clip0_121_41)">
<path d="M25.4494 2.33513C23.8165 0.757445 20.8648 0.0810547 17.0886 0.0810547H6.12925C5.75564 0.0810664 5.39429 0.194055 5.11016 0.399707C4.82603 0.605359 4.63777 0.890185 4.57921 1.20298L0.0159311 25.7361C-0.074772 26.2199 0.367142 26.658 0.94558 26.658H7.71152L9.41074 17.5218L9.358 17.8079C9.47906 17.1621 10.1306 16.6858 10.9022 16.6858H14.1173C20.4335 16.6858 25.3792 14.5111 26.8239 8.22009C26.8668 8.03403 26.9039 7.85294 26.936 7.67602C26.7537 7.59417 26.7537 7.59417 26.936 7.67602C27.3662 5.35082 26.9331 3.76807 25.4494 2.33513Z" fill="#27346A"/>
<path d="M11.9996 6.83841C12.1846 6.76375 12.3869 6.72505 12.5918 6.72516H21.1837C22.2012 6.72516 23.1502 6.78129 24.0173 6.8996C24.26 6.9324 24.5014 6.97155 24.7412 7.01701C25.0811 7.08059 25.417 7.1584 25.7478 7.25016C26.1742 7.37086 26.5712 7.51142 26.9361 7.67602C27.3662 5.34993 26.9331 3.76807 25.4494 2.33513C23.8155 0.757445 20.8648 0.0810547 17.0886 0.0810547H6.12831C5.35663 0.0810547 4.70015 0.55728 4.57921 1.20298L0.0159318 25.7352C-0.0747713 26.2198 0.367143 26.6573 0.944643 26.6573H7.71152L11.2369 7.70662C11.2715 7.52035 11.3591 7.34401 11.4919 7.19277C11.6248 7.04153 11.799 6.91992 11.9996 6.83841Z" fill="#27346A"/>
<path d="M26.8239 8.2201C25.3792 14.5102 20.4336 16.6858 14.1173 16.6858H10.9012C10.1297 16.6858 9.47799 17.1621 9.35811 17.8079L7.24417 29.1676C7.16518 29.591 7.55143 29.9747 8.05674 29.9747H13.7603C14.087 29.9746 14.4029 29.8757 14.6513 29.6958C14.8997 29.5159 15.0642 29.2668 15.1153 28.9932L15.1708 28.7469L16.2458 22.9718L16.3151 22.6526C16.3661 22.379 16.5306 22.1299 16.779 21.95C17.0274 21.7701 17.3433 21.6712 17.67 21.6711H18.5236C24.0486 21.6711 28.3748 19.7684 29.639 14.2655C30.1667 11.9658 29.8937 10.0458 28.4978 8.69722C28.0744 8.28874 27.5485 7.95139 26.936 7.67603C26.9028 7.85384 26.8669 8.03404 26.8239 8.2201Z" fill="#2790C3"/>
<path d="M25.4241 7.16504C25.1988 7.10928 24.9714 7.05991 24.7423 7.01702C24.5023 6.97231 24.261 6.93342 24.0184 6.9004C23.1503 6.7813 22.202 6.72507 21.1836 6.72507H12.5927C12.3877 6.72468 12.1853 6.7637 12.0006 6.83921C11.7998 6.92047 11.6253 7.04201 11.4924 7.19329C11.3595 7.34457 11.272 7.52104 11.2377 7.70742L9.41168 17.5218L9.35895 17.8079C9.47906 17.1621 10.1306 16.6858 10.9023 16.6858H14.1184C20.4346 16.6858 25.3801 14.5111 26.8248 8.2201C26.8678 8.03404 26.9039 7.85375 26.9371 7.67603C26.5712 7.51232 26.1752 7.37086 25.7488 7.25096C25.6412 7.22073 25.533 7.19208 25.4242 7.16504" fill="#1F264F"/>
</g>
<defs>
<clipPath id="clip0_121_41">
<rect width="30" height="30" fill="white"/>
</clipPath>
</defs>
</svg>
