<svg width="25" height="25" viewBox="0 0 25 25" fill="none" xmlns="http://www.w3.org/2000/svg">
<path d="M23.9583 18.2292L21.3542 20.8333L18.2292 18.75V14.4187C16.6417 13.8927 14.7354 13.5417 12.5 13.5417C10.2656 13.5417 8.35834 13.8927 6.77084 14.4187V18.75L3.64584 20.8333L1.04167 18.2292C1.73438 17.1906 3.62396 15.4615 6.77084 14.4187C8.35834 13.8927 10.2656 13.5417 12.5 13.5417C14.7354 13.5417 16.6417 13.8927 18.2292 14.4187C21.376 15.4604 23.2656 17.1896 23.9583 18.2292Z" fill="white"/>
<path d="M18.2292 14.4187C16.6417 13.8927 14.7354 13.5417 12.5 13.5417C10.2656 13.5417 8.35834 13.8927 6.77084 14.4187M18.2292 14.4187C21.376 15.4604 23.2656 17.1896 23.9583 18.2292L21.3542 20.8333L18.2292 18.75V14.4187ZM6.77084 14.4187C3.62396 15.4604 1.73438 17.1896 1.04167 18.2292L3.64584 20.8333L6.77084 18.75V14.4187ZM12.5 4.16667V8.33333M4.82917 6.9125L7.77501 9.85833M20.1708 6.9125L17.225 9.85833" stroke="white" stroke-width="2" stroke-linecap="round" stroke-linejoin="round"/>
</svg>
