<svg width="25" height="25" viewBox="0 0 25 25" fill="none" xmlns="http://www.w3.org/2000/svg">
<path d="M23.3958 6.25C22.5937 6.61458 21.7292 6.85417 20.8333 6.96875C21.75 6.41667 22.4583 5.54167 22.7917 4.48958C21.9271 5.01042 20.9687 5.375 19.9583 5.58333C19.1354 4.6875 17.9792 4.16667 16.6667 4.16667C14.2187 4.16667 12.2187 6.16667 12.2187 8.63542C12.2187 8.98958 12.2604 9.33334 12.3333 9.65625C8.625 9.46875 5.32292 7.6875 3.125 4.98958C2.73958 5.64583 2.52083 6.41667 2.52083 7.22917C2.52083 8.78125 3.30208 10.1563 4.51042 10.9375C3.77083 10.9375 3.08333 10.7292 2.47917 10.4167V10.4479C2.47917 12.6146 4.02083 14.4271 6.0625 14.8333C5.40701 15.0127 4.71885 15.0377 4.05208 14.9063C4.33501 15.7943 4.8891 16.5713 5.63647 17.1281C6.38385 17.6848 7.28692 17.9934 8.21875 18.0104C6.6392 19.2609 4.68125 19.9368 2.66667 19.9271C2.3125 19.9271 1.95833 19.9063 1.60417 19.8646C3.58333 21.1354 5.9375 21.875 8.45833 21.875C16.6667 21.875 21.1771 15.0625 21.1771 9.15625C21.1771 8.95833 21.1771 8.77083 21.1667 8.57292C22.0417 7.94792 22.7917 7.15625 23.3958 6.25Z" fill="white"/>
</svg>
