<svg width="30" height="30" viewBox="0 0 30 30" fill="none" xmlns="http://www.w3.org/2000/svg">
<g clip-path="url(#clip0_121_28)">
<path d="M11.3903 0.384211L7.4625 21.4258H4.90008L2.96719 4.63263C2.85 3.60079 2.74816 3.22105 2.39156 2.78474C1.80867 2.07368 0.846094 1.40868 0 0.995L0.0570703 0.384211H4.18254C4.70754 0.384211 5.18027 1.16921 5.30051 2.52842L6.3218 14.7055L8.8432 0.384211H11.3903ZM14.8543 0.384211L12.8501 21.4258H10.4257L12.4302 0.384211H14.8543ZM21.4304 14.5558C21.4405 9.00342 18.0116 8.69526 18.034 6.21447C18.0422 5.46026 18.3621 4.65737 19.0624 4.45211C19.4093 4.35132 20.3677 4.27105 21.4532 5.39421L21.8779 0.929474C21.2946 0.45579 20.544 0 19.6104 0C17.2139 0 15.5282 2.85842 15.5147 6.95474C15.499 9.98474 16.7188 11.6734 17.6361 12.6826C18.581 13.7132 18.8979 14.3755 18.8936 15.2966C18.8868 16.7084 18.1389 17.3334 17.4436 17.3566C16.2244 17.4 15.5176 16.6166 14.9538 16.0268L14.5138 20.6395C15.081 21.2232 16.1263 21.7303 17.209 21.7561C19.7566 21.7561 21.4229 18.9303 21.4304 14.5558ZM27.7586 21.4261H30L28.0418 0.384211H25.9738C25.5074 0.384211 25.1154 0.992105 24.9415 1.92658L21.304 21.4258H23.8496L24.3546 18.2826H27.4648L27.7586 21.4261ZM25.0527 13.9711L26.3291 6.06921L27.0623 13.9711H25.0527ZM17.957 27.2179H16.9719V29.2766H18.0737V29.8955H16.64V24.1842H18.0172V24.8032H16.9719V26.6076H17.9569L17.957 27.2179ZM18.5827 23.8795H18.9145V29.8953H18.5827V23.8795ZM19.752 27.9803C19.7595 28.9889 20.0426 29.4039 20.3782 29.4039C20.6161 29.4039 20.7632 29.3108 20.8841 29.1924L20.9443 29.7263C20.8274 29.8447 20.6237 29.9887 20.333 29.9887C19.7709 29.9887 19.4352 29.15 19.4352 27.9126C19.4352 26.6758 19.7595 25.7095 20.2916 25.7095C20.8916 25.7095 21.0463 26.8792 21.0463 27.6332C21.0463 27.7855 21.0424 27.8955 21.0348 27.9805L19.752 27.9803ZM20.7254 27.4466C20.7293 26.9808 20.6387 26.2434 20.2651 26.2434C19.9255 26.2434 19.7821 26.9297 19.7556 27.4466H20.7254ZM22.8529 29.7513C22.7661 29.8447 22.5736 29.9889 22.3284 29.9889C21.7775 29.9889 21.4191 29.15 21.4191 27.8958C21.4191 26.6332 21.8038 25.7097 22.4 25.7097C22.5962 25.7097 22.7698 25.8195 22.8604 25.93L22.7851 26.4976C22.7055 26.4045 22.5811 26.3024 22.4 26.3024C21.9811 26.3024 21.7549 27.0058 21.7549 27.8537C21.7549 28.8024 22.0266 29.3871 22.3888 29.3871C22.5775 29.3871 22.7019 29.2855 22.7962 29.1924L22.8529 29.7513ZM23.7843 24.8113V25.7942H24.2596V26.3616H23.7843V28.5734C23.7843 29.0824 23.8485 29.37 24.0333 29.37C24.1237 29.37 24.1767 29.3534 24.2258 29.3189L24.2409 29.8874C24.1767 29.9379 24.0749 29.9887 23.9466 29.9887C23.7918 29.9887 23.6672 29.87 23.5881 29.6755C23.4975 29.4463 23.4598 29.0824 23.4598 28.5992V26.3616H23.1766V25.7942H23.4598V25.0316L23.7843 24.8113ZM24.7233 27.0739C24.7233 26.5908 24.7193 26.1758 24.7082 25.7942H24.9988L25.014 26.6074H25.025C25.1082 26.0571 25.3118 25.7095 25.5343 25.7095C25.5684 25.7095 25.5949 25.7182 25.6252 25.7263V26.43C25.5912 26.4126 25.5573 26.4126 25.5117 26.4126C25.278 26.4126 25.1118 26.8024 25.0666 27.3621C25.0589 27.4771 25.0551 27.5932 25.0553 27.7095V29.8958H24.7233V27.0739ZM27.666 27.8108C27.666 29.3276 27.1942 29.9887 26.7566 29.9887C26.2659 29.9887 25.8812 29.175 25.8812 27.8789C25.8812 26.5145 26.2849 25.7097 26.7868 25.7097C27.3112 25.7097 27.666 26.5647 27.666 27.8108ZM26.2207 27.8537C26.2207 28.7518 26.4471 29.43 26.7716 29.43C27.0887 29.43 27.3263 28.76 27.3263 27.8366C27.3263 27.1418 27.1716 26.2687 26.7791 26.2687C26.3906 26.2687 26.2207 27.0826 26.2207 27.8537ZM28.1748 26.9045C28.1748 26.4726 28.1708 26.1334 28.1596 25.7947H28.4539L28.4728 26.4726H28.4803C28.5709 26.0911 28.7822 25.71 29.0841 25.71C29.3367 25.71 29.7293 26.0489 29.7293 27.455V29.8958H29.3973V27.5316C29.3973 26.8711 29.2879 26.3197 28.9747 26.3197C28.7596 26.3197 28.5896 26.6674 28.5295 27.0824C28.5143 27.1758 28.5068 27.3026 28.5068 27.43V29.8958H28.1748V26.9045Z" fill="#1A1F71"/>
</g>
<defs>
<clipPath id="clip0_121_28">
<rect width="30" height="30" fill="white"/>
</clipPath>
</defs>
</svg>
