<svg width="15" height="15" viewBox="0 0 15 15" fill="none" xmlns="http://www.w3.org/2000/svg">
<g clip-path="url(#clip0_108_2)">
<path d="M2.1975 12.8025C1.48117 12.1106 0.909805 11.2831 0.516738 10.368C0.12367 9.453 -0.0832263 8.46885 -0.0918799 7.47301C-0.100534 6.47716 0.0892292 5.48957 0.466336 4.56785C0.843443 3.64612 1.40034 2.80873 2.10454 2.10454C2.80873 1.40034 3.64612 0.843444 4.56784 0.466338C5.48957 0.0892311 6.47716 -0.100532 7.47301 -0.091878C8.46885 -0.0832244 9.453 0.123672 10.368 0.51674C11.2831 0.909807 12.1106 1.48117 12.8025 2.1975C14.1687 3.61202 14.9246 5.50653 14.9076 7.47301C14.8905 9.43949 14.1017 11.3206 12.7111 12.7111C11.3206 14.1017 9.43948 14.8905 7.47301 14.9076C5.50653 14.9246 3.61201 14.1687 2.1975 12.8025ZM11.745 11.745C12.8708 10.6192 13.5033 9.09218 13.5033 7.5C13.5033 5.90782 12.8708 4.38084 11.745 3.255C10.6192 2.12916 9.09218 1.49666 7.5 1.49666C5.90781 1.49666 4.38084 2.12916 3.255 3.255C2.12915 4.38084 1.49666 5.90782 1.49666 7.5C1.49666 9.09218 2.12915 10.6192 3.255 11.745C4.38084 12.8708 5.90781 13.5033 7.5 13.5033C9.09218 13.5033 10.6192 12.8708 11.745 11.745ZM5.025 6.9675L6.75 8.7L9.975 5.475L11.025 6.54L6.75 10.8L3.975 8.025L5.025 6.96V6.9675Z" fill="#70DD88"/>
</g>
<defs>
<clipPath id="clip0_108_2">
<rect width="15" height="15" fill="white"/>
</clipPath>
</defs>
</svg>
