<svg width="15" height="15" viewBox="0 0 15 15" fill="none" xmlns="http://www.w3.org/2000/svg">
<g clip-path="url(#clip0_108_4)">
<path fill-rule="evenodd" clip-rule="evenodd" d="M12.6562 7.5C12.6562 8.86752 12.113 10.179 11.146 11.146C10.179 12.113 8.86752 12.6562 7.5 12.6562C6.13248 12.6562 4.82097 12.113 3.85398 11.146C2.887 10.179 2.34375 8.86752 2.34375 7.5C2.34375 6.13248 2.887 4.82097 3.85398 3.85398C4.82097 2.887 6.13248 2.34375 7.5 2.34375C8.86752 2.34375 10.179 2.887 11.146 3.85398C12.113 4.82097 12.6562 6.13248 12.6562 7.5ZM14.0625 7.5C14.0625 9.24048 13.3711 10.9097 12.1404 12.1404C10.9097 13.3711 9.24048 14.0625 7.5 14.0625C5.75952 14.0625 4.09032 13.3711 2.85961 12.1404C1.6289 10.9097 0.9375 9.24048 0.9375 7.5C0.9375 5.75952 1.6289 4.09032 2.85961 2.85961C4.09032 1.6289 5.75952 0.9375 7.5 0.9375C9.24048 0.9375 10.9097 1.6289 12.1404 2.85961C13.3711 4.09032 14.0625 5.75952 14.0625 7.5ZM6.12188 5.12812C5.98859 5.00392 5.81229 4.93631 5.63014 4.93952C5.44798 4.94274 5.27418 5.01653 5.14535 5.14535C5.01653 5.27418 4.94274 5.44798 4.93952 5.63014C4.93631 5.81229 5.00392 5.98859 5.12812 6.12188L6.50625 7.5L5.12812 8.87813C5.05904 8.9425 5.00364 9.02012 4.96521 9.10637C4.92678 9.19262 4.90611 9.28573 4.90445 9.38014C4.90278 9.47454 4.92015 9.56832 4.95551 9.65587C4.99087 9.74342 5.04351 9.82296 5.11028 9.88972C5.17704 9.95649 5.25658 10.0091 5.34413 10.0445C5.43168 10.0799 5.52546 10.0972 5.61986 10.0956C5.71427 10.0939 5.80738 10.0732 5.89363 10.0348C5.97988 9.99636 6.0575 9.94096 6.12188 9.87187L7.5 8.49375L8.87813 9.87187C8.9425 9.94096 9.02012 9.99636 9.10637 10.0348C9.19262 10.0732 9.28573 10.0939 9.38014 10.0956C9.47454 10.0972 9.56832 10.0799 9.65587 10.0445C9.74342 10.0091 9.82296 9.95649 9.88972 9.88972C9.95649 9.82296 10.0091 9.74342 10.0445 9.65587C10.0799 9.56832 10.0972 9.47454 10.0956 9.38014C10.0939 9.28573 10.0732 9.19262 10.0348 9.10637C9.99636 9.02012 9.94096 8.9425 9.87187 8.87813L8.49375 7.5L9.87187 6.12188C9.94096 6.0575 9.99636 5.97988 10.0348 5.89363C10.0732 5.80738 10.0939 5.71427 10.0956 5.61986C10.0972 5.52546 10.0799 5.43168 10.0445 5.34413C10.0091 5.25658 9.95649 5.17704 9.88972 5.11028C9.82296 5.04351 9.74342 4.99087 9.65587 4.95551C9.56832 4.92015 9.47454 4.90278 9.38014 4.90445C9.28573 4.90611 9.19262 4.92678 9.10637 4.96521C9.02012 5.00364 8.9425 5.05904 8.87813 5.12812L7.5 6.50625L6.12188 5.12812Z" fill="#9D0909"/>
</g>
<defs>
<clipPath id="clip0_108_4">
<rect width="15" height="15" fill="white"/>
</clipPath>
</defs>
</svg>
